Abordage.ufo
<glyph name="exclam" format="2">
	<advance width="315"/>
	<unicode hex="0021"/>
	<guideline y="-8"/>
	<outline>
		<contour>
			<point x="115" y="238" type="line"/>
			<point x="201" y="238" type="line"/>
			<point x="201" y="800" type="line"/>
			<point x="115" y="800" type="line"/>
		</contour>
		<contour>
			<point x="157" y="-8" type="curve" smooth="yes"/>
			<point x="197" y="-8"/>
			<point x="230" y="25"/>
			<point x="230" y="65" type="curve" smooth="yes"/>
			<point x="230" y="105"/>
			<point x="197" y="137"/>
			<point x="157" y="137" type="curve" smooth="yes"/>
			<point x="117" y="137"/>
			<point x="85" y="105"/>
			<point x="85" y="65" type="curve" smooth="yes"/>
			<point x="85" y="25"/>
			<point x="117" y="-8"/>
		</contour>
	</outline>
</glyph>
<glyph name="quotedbl" format="2">
	<advance width="408"/>
	<unicode hex="0022"/>
	<outline>
		<contour>
			<point x="272" y="611" type="line"/>
			<point x="328" y="611" type="line"/>
			<point x="343" y="800" type="line"/>
			<point x="257" y="800" type="line"/>
		</contour>
		<contour>
			<point x="80" y="611" type="line"/>
			<point x="136" y="611" type="line"/>
			<point x="151" y="800" type="line"/>
			<point x="65" y="800" type="line"/>
		</contour>
	</outline>
</glyph>
<glyph name="numbersign" format="2">
	<advance width="678"/>
	<unicode hex="0023"/>
	<outline>
		<contour>
			<point x="393" y="-30" type="line"/>
			<point x="578" y="666" type="line"/>
			<point x="505" y="686" type="line"/>
			<point x="320" y="-10" type="line"/>
		</contour>
		<contour>
			<point x="50" y="187" type="line"/>
			<point x="578" y="187" type="line"/>
			<point x="578" y="260" type="line"/>
			<point x="50" y="260" type="line"/>
		</contour>
		<contour>
			<point x="166" y="-30" type="line"/>
			<point x="351" y="666" type="line"/>
			<point x="278" y="686" type="line"/>
			<point x="93" y="-10" type="line"/>
		</contour>
		<contour>
			<point x="106" y="407" type="line"/>
			<point x="628" y="407" type="line"/>
			<point x="628" y="480" type="line"/>
			<point x="106" y="480" type="line"/>
		</contour>
	</outline>
</glyph>
<glyph name="dollar" format="2">
	<advance width="566"/>
	<unicode hex="0024"/>
	<outline>
		<contour>
			<point x="235" y="-101" type="line"/>
			<point x="321" y="-101" type="line"/>
			<point x="321" y="800" type="line"/>
			<point x="235" y="800" type="line"/>
		</contour>
		<component base="S"/>
	</outline>
</glyph>
<glyph name="percent" format="2">
	<advance width="864"/>
	<unicode hex="0025"/>
	<outline>
		<contour>
			<point x="281" y="-17" type="line"/>
			<point x="646" y="684" type="line"/>
			<point x="571" y="717" type="line"/>
			<point x="208" y="20" type="line"/>
		</contour>
		<contour>
			<point x="198" y="369" type="curve" smooth="yes"/>
			<point x="298" y="369"/>
			<point x="370" y="437"/>
			<point x="370" y="538" type="curve" smooth="yes"/>
			<point x="370" y="639"/>
			<point x="298" y="708"/>
			<point x="198" y="708" type="curve" smooth="yes"/>
			<point x="96" y="708"/>
			<point x="25" y="640"/>
			<point x="25" y="538" type="curve" smooth="yes"/>
			<point x="25" y="437"/>
			<point x="97" y="369"/>
		</contour>
		<contour>
			<point x="198" y="442" type="curve" smooth="yes"/>
			<point x="141" y="442"/>
			<point x="111" y="492"/>
			<point x="111" y="538" type="curve" smooth="yes"/>
			<point x="111" y="584"/>
			<point x="141" y="636"/>
			<point x="198" y="636" type="curve" smooth="yes"/>
			<point x="254" y="636"/>
			<point x="283" y="583"/>
			<point x="283" y="538" type="curve" smooth="yes"/>
			<point x="283" y="493"/>
			<point x="254" y="442"/>
		</contour>
		<contour>
			<point x="667" y="-6" type="curve" smooth="yes"/>
			<point x="767" y="-6"/>
			<point x="839" y="62"/>
			<point x="839" y="163" type="curve" smooth="yes"/>
			<point x="839" y="264"/>
			<point x="767" y="333"/>
			<point x="667" y="333" type="curve" smooth="yes"/>
			<point x="565" y="333"/>
			<point x="494" y="265"/>
			<point x="494" y="163" type="curve" smooth="yes"/>
			<point x="494" y="62"/>
			<point x="566" y="-6"/>
		</contour>
		<contour>
			<point x="667" y="67" type="curve" smooth="yes"/>
			<point x="610" y="67"/>
			<point x="580" y="117"/>
			<point x="580" y="163" type="curve" smooth="yes"/>
			<point x="580" y="209"/>
			<point x="610" y="261"/>
			<point x="667" y="261" type="curve" smooth="yes"/>
			<point x="723" y="261"/>
			<point x="752" y="208"/>
			<point x="752" y="163" type="curve" smooth="yes"/>
			<point x="752" y="118"/>
			<point x="723" y="67"/>
		</contour>
	</outline>
</glyph>
<glyph name="ampersand" format="2">
	<advance width="799"/>
	<unicode hex="0026"/>
	<outline>
		<contour>
			<point x="676" y="-17" type="line"/>
			<point x="734" y="48" type="line"/>
			<point x="311" y="430" type="line" smooth="yes"/>
			<point x="273" y="465"/>
			<point x="237" y="499"/>
			<point x="237" y="541" type="curve" smooth="yes"/>
			<point x="237" y="594"/>
			<point x="278" y="635"/>
			<point x="337" y="635" type="curve" smooth="yes"/>
			<point x="399" y="635"/>
			<point x="435" y="591"/>
			<point x="435" y="549" type="curve" smooth="yes"/>
			<point x="435" y="490"/>
			<point x="386" y="456"/>
			<point x="309" y="427" type="curve"/>
			<point x="347" y="375" type="line"/>
			<point x="458" y="407"/>
			<point x="521" y="463"/>
			<point x="521" y="549" type="curve" smooth="yes"/>
			<point x="521" y="637"/>
			<point x="436" y="707"/>
			<point x="337" y="707" type="curve" smooth="yes"/>
			<point x="235" y="707"/>
			<point x="151" y="637"/>
			<point x="151" y="541" type="curve" smooth="yes"/>
			<point x="151" y="487"/>
			<point x="191" y="423"/>
			<point x="234" y="384" type="curve" smooth="yes"/>
		</contour>
		<contour>
			<point x="268" y="-6" type="curve" smooth="yes"/>
			<point x="399" y="-6"/>
			<point x="494" y="73"/>
			<point x="566" y="197" type="curve" smooth="yes"/>
			<point x="646" y="336" type="line"/>
			<point x="779" y="336" type="line"/>
			<point x="779" y="408" type="line"/>
			<point x="597" y="408" type="line"/>
			<point x="511" y="256" type="line" smooth="yes"/>
			<point x="450" y="148"/>
			<point x="388" y="66"/>
			<point x="279" y="66" type="curve" smooth="yes"/>
			<point x="193" y="66"/>
			<point x="136" y="126"/>
			<point x="136" y="201" type="curve" smooth="yes"/>
			<point x="136" y="269"/>
			<point x="178" y="327"/>
			<point x="309" y="361" type="curve"/>
			<point x="270" y="418" type="line"/>
			<point x="165" y="389"/>
			<point x="50" y="320"/>
			<point x="50" y="197" type="curve" smooth="yes"/>
			<point x="50" y="78"/>
			<point x="139" y="-6"/>
		</contour>
	</outline>
</glyph>
<glyph name="quotesingle" format="2">
	<advance width="216"/>
	<unicode hex="0027"/>
	<outline>
		<contour>
			<point x="80" y="611" type="line"/>
			<point x="136" y="611" type="line"/>
			<point x="151" y="800" type="line"/>
			<point x="65" y="800" type="line"/>
		</contour>
	</outline>
</glyph>
<glyph name="parenleft" format="2">
	<advance width="320"/>
	<unicode hex="0028"/>
	<outline>
		<contour>
			<point x="259" y="-207" type="curve"/>
			<point x="320" y="-150" type="line"/>
			<point x="222" y="-55"/>
			<point x="121" y="100"/>
			<point x="121" y="300" type="curve" smooth="yes"/>
			<point x="121" y="510"/>
			<point x="222" y="662"/>
			<point x="320" y="757" type="curve"/>
			<point x="259" y="811" type="line"/>
			<point x="164" y="719"/>
			<point x="35" y="532"/>
			<point x="35" y="300" type="curve" smooth="yes"/>
			<point x="35" y="79"/>
			<point x="165" y="-125"/>
		</contour>
	</outline>
</glyph>
<glyph name="asterisk" format="2">
	<advance width="577"/>
	<unicode hex="002A"/>
	<outline>
		<contour>
			<point x="162" y="306" type="line"/>
			<point x="287" y="482" type="line"/>
			<point x="415" y="306" type="line"/>
			<point x="467" y="347" type="line"/>
			<point x="343" y="517" type="line"/>
			<point x="542" y="586" type="line"/>
			<point x="522" y="645" type="line"/>
			<point x="321" y="583" type="line"/>
			<point x="321" y="800" type="line"/>
			<point x="253" y="800" type="line"/>
			<point x="253" y="584" type="line"/>
			<point x="54" y="645" type="line"/>
			<point x="35" y="586" type="line"/>
			<point x="234" y="517" type="line"/>
			<point x="109" y="347" type="line"/>
		</contour>
	</outline>
</glyph>
<glyph name="plus" format="2">
	<advance width="540"/>
	<unicode hex="002B"/>
	<guideline y="361"/>
	<guideline y="271"/>
	<outline>
		<contour>
			<point x="232" y="193" type="line"/>
			<point x="308" y="193" type="line"/>
			<point x="308" y="362" type="line"/>
			<point x="475" y="362" type="line"/>
			<point x="475" y="438" type="line"/>
			<point x="308" y="438" type="line"/>
			<point x="308" y="607" type="line"/>
			<point x="232" y="607" type="line"/>
			<point x="232" y="438" type="line"/>
			<point x="65" y="438" type="line"/>
			<point x="65" y="362" type="line"/>
			<point x="232" y="362" type="line"/>
		</contour>
	</outline>
</glyph>
<glyph name="comma" format="2">
	<advance width="226"/>
	<unicode hex="002C"/>
	<outline>
		<contour>
			<point x="-10" y="-171" type="line"/>
			<point x="28" y="-155" type="line" smooth="yes"/>
			<point x="142" y="-107"/>
			<point x="191" y="-37"/>
			<point x="191" y="77" type="curve" smooth="yes"/>
			<point x="191" y="100" type="line"/>
			<point x="116" y="100" type="line"/>
			<point x="116" y="77" type="line" smooth="yes"/>
			<point x="116" y="9"/>
			<point x="92" y="-44"/>
			<point x="8" y="-83" type="curve" smooth="yes"/>
			<point x="-35" y="-103" type="line"/>
		</contour>
	</outline>
</glyph>
<glyph name="hyphen" format="2">
	<advance width="477"/>
	<unicode hex="002D"/>
	<outline>
		<contour>
			<point x="65" y="235" type="line"/>
			<point x="412" y="235" type="line"/>
			<point x="412" y="316" type="line"/>
			<point x="65" y="316" type="line"/>
		</contour>
	</outline>
</glyph>
<glyph name="period" format="2">
	<advance width="255"/>
	<unicode hex="002E"/>
	<guideline y="-8"/>
	<outline>
		<contour>
			<point x="127" y="-8" type="curve" smooth="yes"/>
			<point x="167" y="-8"/>
			<point x="200" y="24"/>
			<point x="200" y="64" type="curve" smooth="yes"/>
			<point x="200" y="104"/>
			<point x="167" y="137"/>
			<point x="127" y="137" type="curve" smooth="yes"/>
			<point x="87" y="137"/>
			<point x="55" y="104"/>
			<point x="55" y="64" type="curve" smooth="yes"/>
			<point x="55" y="24"/>
			<point x="87" y="-8"/>
		</contour>
	</outline>
</glyph>
<glyph name="slash" format="2">
	<advance width="507"/>
	<unicode hex="002F"/>
	<outline>
		<contour>
			<point x="88" y="0" type="line"/>
			<point x="487" y="765" type="line"/>
			<point x="418" y="800" type="line"/>
			<point x="20" y="37" type="line"/>
		</contour>
	</outline>
</glyph>
<glyph name="zero" format="2">
	<advance width="645"/>
	<unicode hex="0030"/>
	<outline>
		<contour>
			<point x="324" y="-7" type="curve" smooth="yes"/>
			<point x="535" y="-7"/>
			<point x="610" y="177"/>
			<point x="610" y="350" type="curve" smooth="yes"/>
			<point x="610" y="523"/>
			<point x="533" y="707"/>
			<point x="324" y="707" type="curve" smooth="yes"/>
			<point x="116" y="707"/>
			<point x="35" y="524"/>
			<point x="35" y="350" type="curve" smooth="yes"/>
			<point x="35" y="173"/>
			<point x="114" y="-7"/>
		</contour>
		<contour>
			<point x="323" y="75" type="curve" smooth="yes"/>
			<point x="167" y="75"/>
			<point x="129" y="240"/>
			<point x="129" y="350" type="curve" smooth="yes"/>
			<point x="129" y="460"/>
			<point x="166" y="625"/>
			<point x="323" y="625" type="curve" smooth="yes"/>
			<point x="478" y="625"/>
			<point x="516" y="458"/>
			<point x="516" y="350" type="curve" smooth="yes"/>
			<point x="516" y="242"/>
			<point x="478" y="75"/>
		</contour>
	</outline>
</glyph>
<glyph name="one" format="2">
	<advance width="510"/>
	<unicode hex="0031"/>
	<guideline x="10"/>
	<outline>
		<contour>
			<point x="58" y="0" type="line"/>
			<point x="475" y="0" type="line"/>
			<point x="475" y="82" type="line"/>
			<point x="321" y="82" type="line"/>
			<point x="321" y="682" type="line"/>
			<point x="255" y="708" type="line"/>
			<point x="35" y="497" type="line"/>
			<point x="92" y="431" type="line"/>
			<point x="259" y="594" type="line"/>
			<point x="227" y="608" type="line"/>
			<point x="227" y="82" type="line"/>
			<point x="58" y="82" type="line"/>
		</contour>
	</outline>
</glyph>
<glyph name="two" format="2">
	<advance width="557"/>
	<unicode hex="0032"/>
	<outline>
		<contour>
			<point x="61" y="0" type="line"/>
			<point x="532" y="0" type="line"/>
			<point x="532" y="82" type="line"/>
			<point x="138" y="82" type="line"/>
			<point x="375" y="285" type="line" smooth="yes"/>
			<point x="464" y="361"/>
			<point x="500" y="417"/>
			<point x="500" y="509" type="curve" smooth="yes"/>
			<point x="500" y="625"/>
			<point x="416" y="707"/>
			<point x="280" y="707" type="curve" smooth="yes"/>
			<point x="180" y="707"/>
			<point x="67" y="669"/>
			<point x="25" y="524" type="curve"/>
			<point x="106" y="494" type="line"/>
			<point x="130" y="578"/>
			<point x="190" y="625"/>
			<point x="278" y="625" type="curve" smooth="yes"/>
			<point x="351" y="625"/>
			<point x="406" y="574"/>
			<point x="406" y="500" type="curve" smooth="yes"/>
			<point x="406" y="440"/>
			<point x="376" y="397"/>
			<point x="306" y="335" type="curve" smooth="yes"/>
			<point x="35" y="96" type="line"/>
		</contour>
	</outline>
</glyph>
<glyph name="three" format="2">
	<advance width="607"/>
	<unicode hex="0033"/>
	<outline>
		<contour>
			<point x="295" y="-7" type="curve" smooth="yes"/>
			<point x="444" y="-7"/>
			<point x="539" y="84"/>
			<point x="539" y="199" type="curve" smooth="yes"/>
			<point x="539" y="285"/>
			<point x="488" y="343"/>
			<point x="397" y="362" type="curve"/>
			<point x="486" y="374"/>
			<point x="526" y="449"/>
			<point x="526" y="528" type="curve" smooth="yes"/>
			<point x="526" y="645"/>
			<point x="416" y="705"/>
			<point x="305" y="705" type="curve" smooth="yes"/>
			<point x="202" y="705"/>
			<point x="115" y="666"/>
			<point x="58" y="578" type="curve"/>
			<point x="133" y="520" type="line"/>
			<point x="179" y="589"/>
			<point x="234" y="623"/>
			<point x="303" y="623" type="curve" smooth="yes"/>
			<point x="375" y="623"/>
			<point x="432" y="581"/>
			<point x="432" y="515" type="curve" smooth="yes"/>
			<point x="432" y="407"/>
			<point x="295" y="399"/>
			<point x="190" y="399" type="curve"/>
			<point x="190" y="317" type="line"/>
			<point x="306" y="317"/>
			<point x="445" y="299"/>
			<point x="445" y="191" type="curve" smooth="yes"/>
			<point x="445" y="122"/>
			<point x="395" y="75"/>
			<point x="302" y="75" type="curve" smooth="yes"/>
			<point x="211" y="75"/>
			<point x="152" y="123"/>
			<point x="117" y="192" type="curve"/>
			<point x="44" y="134" type="line"/>
			<point x="99" y="43"/>
			<point x="173" y="-7"/>
		</contour>
	</outline>
</glyph>
<glyph name="four" format="2">
	<advance width="622"/>
	<unicode hex="0034"/>
	<outline>
		<contour>
			<point x="375" y="0" type="line"/>
			<point x="466" y="0" type="line"/>
			<point x="466" y="188" type="line"/>
			<point x="587" y="188" type="line"/>
			<point x="587" y="268" type="line"/>
			<point x="466" y="268" type="line"/>
			<point x="466" y="701" type="line"/>
			<point x="327" y="701" type="line"/>
			<point x="0" y="253" type="line"/>
			<point x="28" y="188" type="line"/>
			<point x="375" y="188" type="line"/>
		</contour>
		<contour>
			<point x="91" y="232" type="line"/>
			<point x="421" y="683" type="line"/>
			<point x="375" y="692" type="line"/>
			<point x="375" y="268" type="line"/>
			<point x="68" y="268" type="line"/>
		</contour>
	</outline>
</glyph>
<glyph name="five" format="2">
	<advance width="564"/>
	<unicode hex="0035"/>
	<outline>
		<contour>
			<point x="273" y="-7" type="curve" smooth="yes"/>
			<point x="422" y="-7"/>
			<point x="529" y="87"/>
			<point x="529" y="226" type="curve" smooth="yes"/>
			<point x="529" y="355"/>
			<point x="445" y="449"/>
			<point x="297" y="449" type="curve" smooth="yes"/>
			<point x="235" y="449"/>
			<point x="182" y="432"/>
			<point x="132" y="388" type="curve"/>
			<point x="156" y="618" type="line"/>
			<point x="465" y="618" type="line"/>
			<point x="465" y="700" type="line"/>
			<point x="87" y="700" type="line"/>
			<point x="49" y="326" type="line"/>
			<point x="126" y="295" type="line"/>
			<point x="171" y="342"/>
			<point x="222" y="367"/>
			<point x="284" y="367" type="curve" smooth="yes"/>
			<point x="374" y="367"/>
			<point x="438" y="316"/>
			<point x="438" y="221" type="curve" smooth="yes"/>
			<point x="438" y="134"/>
			<point x="378" y="75"/>
			<point x="274" y="75" type="curve" smooth="yes"/>
			<point x="192" y="75"/>
			<point x="131" y="123"/>
			<point x="98" y="181" type="curve"/>
			<point x="25" y="124" type="line"/>
			<point x="81" y="44"/>
			<point x="158" y="-7"/>
		</contour>
	</outline>
</glyph>
<glyph name="six" format="2">
	<advance width="565"/>
	<unicode hex="0036"/>
	<guideline y="243"/>
	<outline>
		<contour>
			<point x="282" y="-7" type="curve" smooth="yes"/>
			<point x="420" y="-7"/>
			<point x="540" y="66"/>
			<point x="540" y="216" type="curve" smooth="yes"/>
			<point x="540" y="350"/>
			<point x="442" y="436"/>
			<point x="305" y="436" type="curve" smooth="yes"/>
			<point x="237" y="436"/>
			<point x="167" y="407"/>
			<point x="129" y="363" type="curve"/>
			<point x="129" y="535"/>
			<point x="181" y="625"/>
			<point x="307" y="625" type="curve" smooth="yes"/>
			<point x="383" y="625"/>
			<point x="431" y="581"/>
			<point x="468" y="509" type="curve"/>
			<point x="547" y="562" type="line"/>
			<point x="502" y="661"/>
			<point x="422" y="707"/>
			<point x="314" y="707" type="curve" smooth="yes"/>
			<point x="114" y="707"/>
			<point x="35" y="556"/>
			<point x="35" y="342" type="curve" smooth="yes"/>
			<point x="35" y="277" type="line" smooth="yes"/>
			<point x="35" y="107"/>
			<point x="121" y="-7"/>
		</contour>
		<contour>
			<point x="290" y="75" type="curve" smooth="yes"/>
			<point x="200" y="75"/>
			<point x="134" y="131"/>
			<point x="134" y="212" type="curve" smooth="yes"/>
			<point x="134" y="306"/>
			<point x="206" y="354"/>
			<point x="302" y="354" type="curve" smooth="yes"/>
			<point x="386" y="354"/>
			<point x="446" y="300"/>
			<point x="446" y="218" type="curve" smooth="yes"/>
			<point x="446" y="125"/>
			<point x="377" y="75"/>
		</contour>
	</outline>
</glyph>
<glyph name="seven" format="2">
	<advance width="489"/>
	<unicode hex="0037"/>
	<outline>
		<contour>
			<point x="217" y="-14" type="line"/>
			<point x="479" y="647" type="line"/>
			<point x="456" y="699" type="line"/>
			<point x="20" y="699" type="line"/>
			<point x="20" y="617" type="line"/>
			<point x="411" y="617" type="line"/>
			<point x="394" y="659" type="line"/>
			<point x="135" y="25" type="line"/>
		</contour>
		<contour>
			<point x="75" y="318" type="line"/>
			<point x="478" y="318" type="line"/>
			<point x="478" y="400" type="line"/>
			<point x="75" y="400" type="line"/>
		</contour>
	</outline>
</glyph>
<glyph name="eight" format="2">
	<advance width="630"/>
	<unicode hex="0038"/>
	<outline>
		<contour>
			<point x="316" y="-8" type="curve" smooth="yes"/>
			<point x="462" y="-8"/>
			<point x="575" y="76"/>
			<point x="575" y="192" type="curve" smooth="yes"/>
			<point x="575" y="256"/>
			<point x="537" y="328"/>
			<point x="459" y="366" type="curve"/>
			<point x="498" y="395"/>
			<point x="550" y="445"/>
			<point x="550" y="516" type="curve" smooth="yes"/>
			<point x="550" y="623"/>
			<point x="452" y="708"/>
			<point x="315" y="708" type="curve" smooth="yes"/>
			<point x="178" y="708"/>
			<point x="80" y="622"/>
			<point x="80" y="515" type="curve" smooth="yes"/>
			<point x="80" y="444"/>
			<point x="128" y="395"/>
			<point x="171" y="366" type="curve"/>
			<point x="93" y="328"/>
			<point x="55" y="257"/>
			<point x="55" y="193" type="curve" smooth="yes"/>
			<point x="55" y="65"/>
			<point x="168" y="-8"/>
		</contour>
		<contour>
			<point x="315" y="74" type="curve" smooth="yes"/>
			<point x="217" y="74"/>
			<point x="148" y="123"/>
			<point x="148" y="197" type="curve" smooth="yes"/>
			<point x="148" y="269"/>
			<point x="214" y="321"/>
			<point x="316" y="321" type="curve" smooth="yes"/>
			<point x="417" y="321"/>
			<point x="481" y="269"/>
			<point x="481" y="197" type="curve" smooth="yes"/>
			<point x="481" y="123"/>
			<point x="413" y="74"/>
		</contour>
		<contour>
			<point x="315" y="403" type="curve" smooth="yes"/>
			<point x="235" y="403"/>
			<point x="175" y="442"/>
			<point x="175" y="513" type="curve" smooth="yes"/>
			<point x="175" y="585"/>
			<point x="236" y="626"/>
			<point x="314" y="626" type="curve" smooth="yes"/>
			<point x="393" y="626"/>
			<point x="456" y="584"/>
			<point x="456" y="512" type="curve" smooth="yes"/>
			<point x="456" y="442"/>
			<point x="395" y="403"/>
		</contour>
	</outline>
</glyph>
<glyph name="colon" format="2">
	<advance width="315"/>
	<unicode hex="003A"/>
	<outline>
		<contour>
			<point x="157" y="363" type="curve" smooth="yes"/>
			<point x="197" y="363"/>
			<point x="230" y="395"/>
			<point x="230" y="435" type="curve" smooth="yes"/>
			<point x="230" y="475"/>
			<point x="197" y="508"/>
			<point x="157" y="508" type="curve" smooth="yes"/>
			<point x="117" y="508"/>
			<point x="85" y="475"/>
			<point x="85" y="435" type="curve" smooth="yes"/>
			<point x="85" y="395"/>
			<point x="117" y="363"/>
		</contour>
		<contour>
			<point x="157" y="-8" type="curve" smooth="yes"/>
			<point x="197" y="-8"/>
			<point x="230" y="24"/>
			<point x="230" y="64" type="curve" smooth="yes"/>
			<point x="230" y="104"/>
			<point x="197" y="137"/>
			<point x="157" y="137" type="curve" smooth="yes"/>
			<point x="117" y="137"/>
			<point x="85" y="104"/>
			<point x="85" y="64" type="curve" smooth="yes"/>
			<point x="85" y="24"/>
			<point x="117" y="-8"/>
		</contour>
	</outline>
</glyph>
<glyph name="semicolon" format="2">
	<advance width="307"/>
	<unicode hex="003B"/>
	<outline>
		<contour>
			<point x="-10" y="-171" type="line"/>
			<point x="28" y="-155" type="line" smooth="yes"/>
			<point x="142" y="-107"/>
			<point x="191" y="-37"/>
			<point x="191" y="77" type="curve" smooth="yes"/>
			<point x="191" y="100" type="line"/>
			<point x="116" y="100" type="line"/>
			<point x="116" y="77" type="line" smooth="yes"/>
			<point x="116" y="9"/>
			<point x="92" y="-44"/>
			<point x="8" y="-83" type="curve" smooth="yes"/>
			<point x="-35" y="-103" type="line"/>
		</contour>
		<contour>
			<point x="149" y="363" type="curve" smooth="yes"/>
			<point x="189" y="363"/>
			<point x="222" y="395"/>
			<point x="222" y="435" type="curve" smooth="yes"/>
			<point x="222" y="475"/>
			<point x="189" y="508"/>
			<point x="149" y="508" type="curve" smooth="yes"/>
			<point x="109" y="508"/>
			<point x="77" y="475"/>
			<point x="77" y="435" type="curve" smooth="yes"/>
			<point x="77" y="395"/>
			<point x="109" y="363"/>
		</contour>
	</outline>
</glyph>
<glyph name="equal" format="2">
	<advance width="520"/>
	<unicode hex="003D"/>
	<outline>
		<contour>
			<point x="65" y="421" type="line"/>
			<point x="455" y="421" type="line"/>
			<point x="455" y="498" type="line"/>
			<point x="65" y="498" type="line"/>
		</contour>
		<contour>
			<point x="65" y="222" type="line"/>
			<point x="455" y="222" type="line"/>
			<point x="455" y="299" type="line"/>
			<point x="65" y="299" type="line"/>
		</contour>
	</outline>
</glyph>
<glyph name="greater" format="2">
	<advance width="615"/>
	<unicode hex="003E"/>
	<outline>
		<contour>
			<point x="103" y="39" type="line"/>
			<point x="560" y="304" type="line"/>
			<point x="560" y="395" type="line"/>
			<point x="99" y="663" type="line"/>
			<point x="65" y="592" type="line"/>
			<point x="480" y="349" type="line"/>
			<point x="65" y="107" type="line"/>
		</contour>
	</outline>
</glyph>
<glyph name="question" format="2">
	<advance width="611"/>
	<unicode hex="003F"/>
	<guideline x="233"/>
	<guideline x="332"/>
	<outline>
		<contour>
			<point x="241" y="225" type="line"/>
			<point x="327" y="225" type="line"/>
			<point x="327" y="384" type="line"/>
			<point x="334" y="385" type="line" smooth="yes"/>
			<point x="452" y="402"/>
			<point x="546" y="468"/>
			<point x="546" y="601" type="curve" smooth="yes"/>
			<point x="546" y="732"/>
			<point x="441" y="807"/>
			<point x="317" y="807" type="curve" smooth="yes"/>
			<point x="186" y="807"/>
			<point x="97" y="742"/>
			<point x="65" y="626" type="curve"/>
			<point x="151" y="595" type="line"/>
			<point x="175" y="676"/>
			<point x="226" y="735"/>
			<point x="320" y="735" type="curve" smooth="yes"/>
			<point x="391" y="735"/>
			<point x="460" y="686"/>
			<point x="460" y="600" type="curve" smooth="yes"/>
			<point x="460" y="491"/>
			<point x="359" y="448"/>
			<point x="241" y="441" type="curve"/>
		</contour>
		<contour>
			<point x="283" y="-8" type="curve" smooth="yes"/>
			<point x="323" y="-8"/>
			<point x="356" y="24"/>
			<point x="356" y="64" type="curve" smooth="yes"/>
			<point x="356" y="104"/>
			<point x="323" y="137"/>
			<point x="283" y="137" type="curve" smooth="yes"/>
			<point x="243" y="137"/>
			<point x="211" y="104"/>
			<point x="211" y="64" type="curve" smooth="yes"/>
			<point x="211" y="24"/>
			<point x="243" y="-8"/>
		</contour>
	</outline>
</glyph>
<glyph name="at" format="2">
	<advance width="903"/>
	<unicode hex="0040"/>
	<outline>
		<contour>
			<point x="417" y="-183" type="curve" smooth="yes"/>
			<point x="489" y="-183"/>
			<point x="542" y="-167"/>
			<point x="603" y="-132" type="curve"/>
			<point x="568" y="-68" type="line"/>
			<point x="523" y="-95"/>
			<point x="481" y="-111"/>
			<point x="422" y="-111" type="curve" smooth="yes"/>
			<point x="239" y="-111"/>
			<point x="121" y="33"/>
			<point x="121" y="224" type="curve" smooth="yes"/>
			<point x="121" y="406"/>
			<point x="229" y="561"/>
			<point x="450" y="561" type="curve" smooth="yes"/>
			<point x="665" y="561"/>
			<point x="783" y="414"/>
			<point x="783" y="239" type="curve" smooth="yes"/>
			<point x="783" y="176"/>
			<point x="768" y="56"/>
			<point x="690" y="56" type="curve" smooth="yes"/>
			<point x="620" y="56"/>
			<point x="606" y="127"/>
			<point x="606" y="181" type="curve" smooth="yes"/>
			<point x="606" y="405" type="line"/>
			<point x="520" y="405" type="line"/>
			<point x="520" y="372" type="line"/>
			<point x="493" y="398"/>
			<point x="470" y="412"/>
			<point x="426" y="412" type="curve" smooth="yes"/>
			<point x="311" y="412"/>
			<point x="255" y="319"/>
			<point x="255" y="218" type="curve" smooth="yes"/>
			<point x="255" y="117"/>
			<point x="311" y="33"/>
			<point x="420" y="33" type="curve" smooth="yes"/>
			<point x="470" y="33"/>
			<point x="513" y="61"/>
			<point x="529" y="88" type="curve"/>
			<point x="552" y="25"/>
			<point x="608" y="-15"/>
			<point x="678" y="-15" type="curve" smooth="yes"/>
			<point x="832" y="-15"/>
			<point x="868" y="147"/>
			<point x="868" y="238" type="curve" smooth="yes"/>
			<point x="868" y="456"/>
			<point x="702" y="633"/>
			<point x="450" y="633" type="curve" smooth="yes"/>
			<point x="193" y="633"/>
			<point x="35" y="448"/>
			<point x="35" y="214" type="curve" smooth="yes"/>
			<point x="35" y="-14"/>
			<point x="185" y="-183"/>
		</contour>
		<contour>
			<point x="440" y="107" type="curve" smooth="yes"/>
			<point x="367" y="107"/>
			<point x="341" y="172"/>
			<point x="341" y="220" type="curve" smooth="yes"/>
			<point x="341" y="268"/>
			<point x="367" y="339"/>
			<point x="443" y="339" type="curve" smooth="yes"/>
			<point x="483" y="339"/>
			<point x="520" y="306"/>
			<point x="520" y="261" type="curve" smooth="yes"/>
			<point x="520" y="193" type="line" smooth="yes"/>
			<point x="520" y="145"/>
			<point x="489" y="107"/>
		</contour>
	</outline>
</glyph>
<glyph name="A" format="2">
	<advance width="543"/>
	<unicode hex="0041"/>
	<guideline x="268" y="541" angle="270"/>
	<anchor x="268" y="670" name="top"/>
	<outline>
		<contour>
			<point x="61" y="0" type="line"/>
			<point x="284" y="643" type="line"/>
			<point x="251" y="643" type="line"/>
			<point x="479" y="0" type="line"/>
			<point x="568" y="30" type="line"/>
			<point x="327" y="710" type="line"/>
			<point x="216" y="710" type="line"/>
			<point x="-22" y="24" type="line"/>
		</contour>
		<contour>
			<point x="123" y="222" type="line"/>
			<point x="423" y="222" type="line"/>
			<point x="423" y="304" type="line"/>
			<point x="123" y="304" type="line"/>
		</contour>
	</outline>
</glyph>
<glyph name="B" format="2">
	<advance width="573"/>
	<unicode hex="0042"/>
	<outline>
		<contour>
			<point x="65" y="0" type="line"/>
			<point x="269" y="0" type="line" smooth="yes"/>
			<point x="425" y="0"/>
			<point x="538" y="56"/>
			<point x="538" y="201" type="curve" smooth="yes"/>
			<point x="538" y="296"/>
			<point x="484" y="357"/>
			<point x="396" y="370" type="curve"/>
			<point x="455" y="395"/>
			<point x="494" y="446"/>
			<point x="494" y="520" type="curve" smooth="yes"/>
			<point x="494" y="657"/>
			<point x="380" y="700"/>
			<point x="262" y="700" type="curve" smooth="yes"/>
			<point x="65" y="700" type="line"/>
		</contour>
		<contour>
			<point x="158" y="80" type="line"/>
			<point x="158" y="322" type="line"/>
			<point x="284" y="322" type="line" smooth="yes"/>
			<point x="387" y="322"/>
			<point x="447" y="291"/>
			<point x="447" y="198" type="curve" smooth="yes"/>
			<point x="447" y="106"/>
			<point x="378" y="80"/>
			<point x="288" y="80" type="curve" smooth="yes"/>
		</contour>
		<contour>
			<point x="158" y="401" type="line"/>
			<point x="158" y="620" type="line"/>
			<point x="260" y="620" type="line" smooth="yes"/>
			<point x="354" y="620"/>
			<point x="403" y="588"/>
			<point x="403" y="517" type="curve" smooth="yes"/>
			<point x="403" y="433"/>
			<point x="348" y="401"/>
			<point x="272" y="401" type="curve" smooth="yes"/>
		</contour>
	</outline>
</glyph>
<glyph name="C" format="2">
	<advance width="579"/>
	<unicode hex="0043"/>
	<anchor x="336" y="670" name="top"/>
	<outline>
		<contour>
			<point x="331" y="-7" type="curve" smooth="yes"/>
			<point x="438" y="-7"/>
			<point x="521" y="52"/>
			<point x="579" y="160" type="curve"/>
			<point x="498" y="202" type="line"/>
			<point x="465" y="123"/>
			<point x="407" y="75"/>
			<point x="338" y="75" type="curve" smooth="yes"/>
			<point x="203" y="75"/>
			<point x="129" y="217"/>
			<point x="129" y="339" type="curve" smooth="yes"/>
			<point x="129" y="366" type="line" smooth="yes"/>
			<point x="129" y="488"/>
			<point x="201" y="626"/>
			<point x="327" y="626" type="curve" smooth="yes"/>
			<point x="412" y="626"/>
			<point x="465" y="580"/>
			<point x="498" y="501" type="curve"/>
			<point x="579" y="541" type="line"/>
			<point x="530" y="653"/>
			<point x="456" y="708"/>
			<point x="331" y="708" type="curve" smooth="yes"/>
			<point x="150" y="708"/>
			<point x="35" y="546"/>
			<point x="35" y="352" type="curve" smooth="yes"/>
			<point x="35" y="158"/>
			<point x="128" y="-7"/>
		</contour>
	</outline>
</glyph>
<glyph name="D" format="2">
	<advance width="633"/>
	<unicode hex="0044"/>
	<anchor x="300" y="670" name="top"/>
	<outline>
		<contour>
			<point x="65" y="0" type="line"/>
			<point x="244" y="0" type="line" smooth="yes"/>
			<point x="500" y="0"/>
			<point x="598" y="137"/>
			<point x="598" y="349" type="curve" smooth="yes"/>
			<point x="598" y="561"/>
			<point x="500" y="700"/>
			<point x="244" y="700" type="curve" smooth="yes"/>
			<point x="65" y="700" type="line"/>
		</contour>
		<contour>
			<point x="159" y="82" type="line"/>
			<point x="159" y="618" type="line"/>
			<point x="244" y="618" type="line" smooth="yes"/>
			<point x="430" y="618"/>
			<point x="504" y="520"/>
			<point x="504" y="349" type="curve" smooth="yes"/>
			<point x="504" y="178"/>
			<point x="430" y="82"/>
			<point x="244" y="82" type="curve" smooth="yes"/>
		</contour>
	</outline>
</glyph>
<glyph name="E" format="2">
	<advance width="520"/>
	<unicode hex="0045"/>
	<anchor x="301" y="670" name="top"/>
	<outline>
		<contour>
			<point x="65" y="0" type="line"/>
			<point x="485" y="0" type="line"/>
			<point x="485" y="80" type="line"/>
			<point x="158" y="80" type="line"/>
			<point x="158" y="321" type="line"/>
			<point x="410" y="321" type="line"/>
			<point x="410" y="400" type="line"/>
			<point x="158" y="400" type="line"/>
			<point x="158" y="619" type="line"/>
			<point x="485" y="619" type="line"/>
			<point x="485" y="700" type="line"/>
			<point x="65" y="700" type="line"/>
		</contour>
	</outline>
</glyph>
<glyph name="F" format="2">
	<advance width="460"/>
	<unicode hex="0046"/>
	<outline>
		<contour>
			<point x="65" y="0" type="line"/>
			<point x="158" y="0" type="line"/>
			<point x="158" y="321" type="line"/>
			<point x="410" y="321" type="line"/>
			<point x="410" y="400" type="line"/>
			<point x="158" y="400" type="line"/>
			<point x="158" y="619" type="line"/>
			<point x="485" y="619" type="line"/>
			<point x="485" y="700" type="line"/>
			<point x="65" y="700" type="line"/>
		</contour>
	</outline>
</glyph>
<glyph name="G" format="2">
	<advance width="626"/>
	<unicode hex="0047"/>
	<outline>
		<contour>
			<point x="329" y="-7" type="curve" smooth="yes"/>
			<point x="466" y="-7"/>
			<point x="591" y="96"/>
			<point x="591" y="251" type="curve" smooth="yes"/>
			<point x="591" y="374" type="line"/>
			<point x="313" y="374" type="line"/>
			<point x="313" y="292" type="line"/>
			<point x="497" y="292" type="line"/>
			<point x="497" y="243" type="line" smooth="yes"/>
			<point x="497" y="122"/>
			<point x="415" y="75"/>
			<point x="336" y="75" type="curve" smooth="yes"/>
			<point x="201" y="75"/>
			<point x="129" y="217"/>
			<point x="129" y="339" type="curve" smooth="yes"/>
			<point x="129" y="366" type="line" smooth="yes"/>
			<point x="129" y="488"/>
			<point x="201" y="626"/>
			<point x="327" y="626" type="curve" smooth="yes"/>
			<point x="412" y="626"/>
			<point x="465" y="580"/>
			<point x="498" y="501" type="curve"/>
			<point x="579" y="541" type="line"/>
			<point x="530" y="653"/>
			<point x="456" y="708"/>
			<point x="331" y="708" type="curve" smooth="yes"/>
			<point x="150" y="708"/>
			<point x="35" y="546"/>
			<point x="35" y="352" type="curve" smooth="yes"/>
			<point x="35" y="158"/>
			<point x="126" y="-7"/>
		</contour>
	</outline>
</glyph>
<glyph name="H" format="2">
	<advance width="676"/>
	<unicode hex="0048"/>
	<outline>
		<contour>
			<point x="65" y="0" type="line"/>
			<point x="159" y="0" type="line"/>
			<point x="159" y="321" type="line"/>
			<point x="517" y="321" type="line"/>
			<point x="517" y="0" type="line"/>
			<point x="611" y="0" type="line"/>
			<point x="611" y="700" type="line"/>
			<point x="517" y="700" type="line"/>
			<point x="517" y="403" type="line"/>
			<point x="159" y="403" type="line"/>
			<point x="159" y="700" type="line"/>
			<point x="65" y="700" type="line"/>
		</contour>
	</outline>
</glyph>
<glyph name="I" format="2">
	<advance width="386"/>
	<unicode hex="0049"/>
	<outline>
		<contour>
			<point x="36" y="0" type="line"/>
			<point x="351" y="0" type="line"/>
			<point x="351" y="80" type="line"/>
			<point x="241" y="80" type="line"/>
			<point x="241" y="620" type="line"/>
			<point x="351" y="620" type="line"/>
			<point x="351" y="700" type="line"/>
			<point x="35" y="700" type="line"/>
			<point x="35" y="620" type="line"/>
			<point x="147" y="620" type="line"/>
			<point x="147" y="80" type="line"/>
			<point x="36" y="80" type="line"/>
		</contour>
	</outline>
</glyph>
<glyph name="J" format="2">
	<advance width="542"/>
	<unicode hex="004A"/>
	<outline>
		<contour>
			<point x="255" y="-7" type="curve" smooth="yes"/>
			<point x="366" y="-7"/>
			<point x="477" y="52"/>
			<point x="477" y="226" type="curve" smooth="yes"/>
			<point x="477" y="700" type="line"/>
			<point x="383" y="700" type="line"/>
			<point x="383" y="226" type="line" smooth="yes"/>
			<point x="383" y="124"/>
			<point x="337" y="75"/>
			<point x="255" y="75" type="curve" smooth="yes"/>
			<point x="167" y="75"/>
			<point x="124" y="145"/>
			<point x="120" y="230" type="curve"/>
			<point x="30" y="212" type="line"/>
			<point x="38" y="68"/>
			<point x="122" y="-7"/>
		</contour>
	</outline>
</glyph>
<glyph name="K" format="2">
	<advance width="613"/>
	<unicode hex="004B"/>
	<outline>
		<contour>
			<point x="159" y="169" type="line"/>
			<point x="560" y="655" type="line"/>
			<point x="489" y="710" type="line"/>
			<point x="100" y="236" type="line"/>
		</contour>
		<contour>
			<point x="67" y="0" type="line"/>
			<point x="161" y="0" type="line"/>
			<point x="161" y="700" type="line"/>
			<point x="67" y="700" type="line"/>
		</contour>
		<contour>
			<point x="535" y="-8" type="line"/>
			<point x="610" y="47" type="line"/>
			<point x="334" y="418" type="line"/>
			<point x="272" y="342" type="line"/>
		</contour>
	</outline>
</glyph>
<glyph name="L" format="2">
	<advance width="489"/>
	<unicode hex="004C"/>
	<outline>
		<contour>
			<point x="65" y="0" type="line"/>
			<point x="489" y="0" type="line"/>
			<point x="489" y="82" type="line"/>
			<point x="159" y="82" type="line"/>
			<point x="159" y="700" type="line"/>
			<point x="65" y="700" type="line"/>
		</contour>
	</outline>
</glyph>
<glyph name="M" format="2">
	<advance width="837"/>
	<unicode hex="004D"/>
	<outline>
		<contour>
			<point x="65" y="0" type="line"/>
			<point x="159" y="0" type="line"/>
			<point x="159" y="546" type="line"/>
			<point x="138" y="546" type="line"/>
			<point x="410" y="116" type="line"/>
			<point x="450" y="116" type="line"/>
			<point x="699" y="546" type="line"/>
			<point x="678" y="546" type="line"/>
			<point x="678" y="0" type="line"/>
			<point x="772" y="0" type="line"/>
			<point x="772" y="681" type="line"/>
			<point x="687" y="700" type="line"/>
			<point x="413" y="225" type="line"/>
			<point x="455" y="226" type="line"/>
			<point x="155" y="700" type="line"/>
			<point x="65" y="681" type="line"/>
		</contour>
	</outline>
</glyph>
<glyph name="N" format="2">
	<advance width="692"/>
	<unicode hex="004E"/>
	<anchor x="366" y="670" name="top"/>
	<outline>
		<contour>
			<point x="548" y="-13" type="line"/>
			<point x="627" y="7" type="line"/>
			<point x="627" y="700" type="line"/>
			<point x="533" y="700" type="line"/>
			<point x="533" y="132" type="line"/>
			<point x="560" y="132" type="line"/>
			<point x="146" y="713" type="line"/>
			<point x="65" y="693" type="line"/>
			<point x="65" y="0" type="line"/>
			<point x="159" y="0" type="line"/>
			<point x="159" y="561" type="line"/>
			<point x="136" y="562" type="line"/>
		</contour>
	</outline>
</glyph>
<glyph name="O" format="2">
	<advance width="725"/>
	<unicode hex="004F"/>
	<anchor x="364" y="670" name="top"/>
	<outline>
		<contour>
			<point x="364" y="-7" type="curve" smooth="yes"/>
			<point x="573" y="-7"/>
			<point x="690" y="157"/>
			<point x="690" y="350" type="curve" smooth="yes"/>
			<point x="690" y="543"/>
			<point x="573" y="707"/>
			<point x="364" y="707" type="curve" smooth="yes"/>
			<point x="156" y="707"/>
			<point x="35" y="544"/>
			<point x="35" y="350" type="curve" smooth="yes"/>
			<point x="35" y="156"/>
			<point x="156" y="-7"/>
		</contour>
		<contour>
			<point x="363" y="75" type="curve" smooth="yes"/>
			<point x="208" y="75"/>
			<point x="129" y="221"/>
			<point x="129" y="350" type="curve" smooth="yes"/>
			<point x="129" y="480"/>
			<point x="206" y="625"/>
			<point x="363" y="625" type="curve" smooth="yes"/>
			<point x="518" y="625"/>
			<point x="596" y="478"/>
			<point x="596" y="350" type="curve" smooth="yes"/>
			<point x="596" y="222"/>
			<point x="518" y="75"/>
		</contour>
	</outline>
</glyph>
<glyph name="P" format="2">
	<advance width="586"/>
	<unicode hex="0050"/>
	<outline>
		<contour>
			<point x="65" y="0" type="line"/>
			<point x="159" y="0" type="line"/>
			<point x="159" y="265" type="line"/>
			<point x="300" y="265" type="line" smooth="yes"/>
			<point x="450" y="265"/>
			<point x="561" y="327"/>
			<point x="561" y="483" type="curve" smooth="yes"/>
			<point x="561" y="638"/>
			<point x="450" y="700"/>
			<point x="300" y="700" type="curve" smooth="yes"/>
			<point x="65" y="700" type="line"/>
		</contour>
		<contour>
			<point x="159" y="347" type="line"/>
			<point x="159" y="618" type="line"/>
			<point x="300" y="618" type="line" smooth="yes"/>
			<point x="402" y="618"/>
			<point x="467" y="586"/>
			<point x="467" y="483" type="curve" smooth="yes"/>
			<point x="467" y="380"/>
			<point x="402" y="347"/>
			<point x="300" y="347" type="curve" smooth="yes"/>
		</contour>
	</outline>
</glyph>
<glyph name="Q" format="2">
	<advance width="743"/>
	<unicode hex="0051"/>
	<guideline x="628"/>
	<outline>
		<contour>
			<point x="364" y="-7" type="curve" smooth="yes"/>
			<point x="573" y="-7"/>
			<point x="690" y="157"/>
			<point x="690" y="350" type="curve" smooth="yes"/>
			<point x="690" y="543"/>
			<point x="573" y="707"/>
			<point x="364" y="707" type="curve" smooth="yes"/>
			<point x="156" y="707"/>
			<point x="35" y="544"/>
			<point x="35" y="350" type="curve" smooth="yes"/>
			<point x="35" y="156"/>
			<point x="156" y="-7"/>
		</contour>
		<contour>
			<point x="598" y="-135" type="curve" smooth="yes"/>
			<point x="708" y="-135" type="line"/>
			<point x="708" y="-53" type="line"/>
			<point x="598" y="-53" type="line" smooth="yes"/>
			<point x="499" y="-53"/>
			<point x="415" y="2"/>
			<point x="415" y="131" type="curve" smooth="yes"/>
			<point x="415" y="200" type="line"/>
			<point x="321" y="200" type="line"/>
			<point x="321" y="149" type="line" smooth="yes"/>
			<point x="321" y="-52"/>
			<point x="439" y="-135"/>
		</contour>
		<contour>
			<point x="363" y="75" type="curve" smooth="yes"/>
			<point x="208" y="75"/>
			<point x="129" y="221"/>
			<point x="129" y="350" type="curve" smooth="yes"/>
			<point x="129" y="480"/>
			<point x="206" y="625"/>
			<point x="363" y="625" type="curve" smooth="yes"/>
			<point x="518" y="625"/>
			<point x="596" y="478"/>
			<point x="596" y="350" type="curve" smooth="yes"/>
			<point x="596" y="222"/>
			<point x="518" y="75"/>
		</contour>
	</outline>
</glyph>
<glyph name="R" format="2">
	<advance width="623"/>
	<unicode hex="0052"/>
	<guideline x="686"/>
	<anchor x="300" y="670" name="top"/>
	<outline>
		<contour>
			<point x="65" y="0" type="line"/>
			<point x="159" y="0" type="line"/>
			<point x="159" y="265" type="line"/>
			<point x="300" y="265" type="line" smooth="yes"/>
			<point x="450" y="265"/>
			<point x="561" y="327"/>
			<point x="561" y="483" type="curve" smooth="yes"/>
			<point x="561" y="638"/>
			<point x="450" y="700"/>
			<point x="300" y="700" type="curve" smooth="yes"/>
			<point x="65" y="700" type="line"/>
		</contour>
		<contour>
			<point x="475" y="-10" type="line"/>
			<point x="551" y="39" type="line"/>
			<point x="388" y="303" type="line"/>
			<point x="287" y="303" type="line"/>
		</contour>
		<contour>
			<point x="159" y="347" type="line"/>
			<point x="159" y="618" type="line"/>
			<point x="300" y="618" type="line" smooth="yes"/>
			<point x="402" y="618"/>
			<point x="467" y="586"/>
			<point x="467" y="483" type="curve" smooth="yes"/>
			<point x="467" y="380"/>
			<point x="402" y="347"/>
			<point x="300" y="347" type="curve" smooth="yes"/>
		</contour>
	</outline>
</glyph>
<glyph name="S" format="2">
	<advance width="566"/>
	<unicode hex="0053"/>
	<anchor x="285" y="0" name="bottom"/>
	<anchor x="275" y="670" name="top"/>
	<outline>
		<contour>
			<point x="290" y="-8" type="curve" smooth="yes"/>
			<point x="411" y="-8"/>
			<point x="541" y="63"/>
			<point x="541" y="205" type="curve" smooth="yes"/>
			<point x="541" y="319"/>
			<point x="461" y="378"/>
			<point x="347" y="405" type="curve" smooth="yes"/>
			<point x="258" y="426" type="line" smooth="yes"/>
			<point x="193" y="441"/>
			<point x="142" y="473"/>
			<point x="142" y="530" type="curve" smooth="yes"/>
			<point x="142" y="575"/>
			<point x="184" y="624"/>
			<point x="268" y="624" type="curve" smooth="yes"/>
			<point x="345" y="624"/>
			<point x="399" y="581"/>
			<point x="433" y="524" type="curve"/>
			<point x="500" y="582" type="line"/>
			<point x="449" y="660"/>
			<point x="372" y="706"/>
			<point x="270" y="706" type="curve" smooth="yes"/>
			<point x="130" y="706"/>
			<point x="48" y="625"/>
			<point x="48" y="526" type="curve" smooth="yes"/>
			<point x="48" y="437"/>
			<point x="106" y="373"/>
			<point x="214" y="346" type="curve" smooth="yes"/>
			<point x="342" y="314" type="line" smooth="yes"/>
			<point x="409" y="297"/>
			<point x="447" y="261"/>
			<point x="447" y="201" type="curve" smooth="yes"/>
			<point x="447" y="114"/>
			<point x="362" y="74"/>
			<point x="295" y="74" type="curve" smooth="yes"/>
			<point x="201" y="74"/>
			<point x="133" y="127"/>
			<point x="86" y="210" type="curve"/>
			<point x="10" y="156" type="line"/>
			<point x="68" y="56"/>
			<point x="162" y="-8"/>
		</contour>
	</outline>
</glyph>
<glyph name="T" format="2">
	<advance width="446"/>
	<unicode hex="0054"/>
	<anchor x="228" y="0" name="bottom"/>
	<anchor x="224" y="700" name="top"/>
	<outline>
		<contour>
			<point x="176" y="0" type="line"/>
			<point x="270" y="0" type="line"/>
			<point x="270" y="618" type="line"/>
			<point x="481" y="618" type="line"/>
			<point x="481" y="700" type="line"/>
			<point x="-35" y="700" type="line"/>
			<point x="-35" y="618" type="line"/>
			<point x="176" y="618" type="line"/>
		</contour>
	</outline>
</glyph>
<glyph name="U" format="2">
	<advance width="625"/>
	<unicode hex="0055"/>
	<guideline x="307" y="287" angle="270"/>
	<anchor x="307" y="650" name="top"/>
	<outline>
		<contour>
			<point x="307" y="-7" type="curve" smooth="yes"/>
			<point x="526" y="-7"/>
			<point x="570" y="149"/>
			<point x="570" y="307" type="curve" smooth="yes"/>
			<point x="570" y="700" type="line"/>
			<point x="476" y="700" type="line"/>
			<point x="476" y="307" type="line" smooth="yes"/>
			<point x="476" y="227"/>
			<point x="466" y="75"/>
			<point x="307" y="75" type="curve" smooth="yes"/>
			<point x="151" y="75"/>
			<point x="149" y="227"/>
			<point x="149" y="307" type="curve" smooth="yes"/>
			<point x="149" y="700" type="line"/>
			<point x="55" y="700" type="line"/>
			<point x="55" y="307" type="line" smooth="yes"/>
			<point x="55" y="149"/>
			<point x="79" y="-7"/>
		</contour>
	</outline>
</glyph>
<glyph name="V" format="2">
	<advance width="523"/>
	<unicode hex="0056"/>
	<outline>
		<contour>
			<point x="206" y="0" type="line"/>
			<point x="317" y="0" type="line"/>
			<point x="545" y="686" type="line"/>
			<point x="462" y="710" type="line"/>
			<point x="249" y="67" type="line"/>
			<point x="282" y="67" type="line"/>
			<point x="64" y="710" type="line"/>
			<point x="-25" y="680" type="line"/>
		</contour>
	</outline>
</glyph>
<glyph name="W" format="2">
	<advance width="797"/>
	<unicode hex="0057"/>
	<anchor x="400" y="670" name="top"/>
	<outline>
		<contour>
			<point x="156" y="0" type="line"/>
			<point x="237" y="0" type="line"/>
			<point x="411" y="533" type="line"/>
			<point x="384" y="533" type="line"/>
			<point x="550" y="0" type="line"/>
			<point x="635" y="0" type="line"/>
			<point x="819" y="689" type="line"/>
			<point x="735" y="708" type="line"/>
			<point x="583" y="138" type="line"/>
			<point x="606" y="138" type="line"/>
			<point x="445" y="654" type="line"/>
			<point x="361" y="654" type="line"/>
			<point x="191" y="138" type="line"/>
			<point x="217" y="138" type="line"/>
			<point x="66" y="708" type="line"/>
			<point x="-25" y="683" type="line"/>
		</contour>
	</outline>
</glyph>
<glyph name="X" format="2">
	<advance width="507"/>
	<unicode hex="0058"/>
	<outline>
		<contour>
			<point x="432" y="-10" type="line"/>
			<point x="514" y="35" type="line"/>
			<point x="122" y="710" type="line"/>
			<point x="40" y="663" type="line"/>
		</contour>
		<contour>
			<point x="93" y="-10" type="line"/>
			<point x="489" y="668" type="line"/>
			<point x="414" y="710" type="line"/>
			<point x="21" y="38" type="line"/>
		</contour>
	</outline>
</glyph>
<glyph name="Y" format="2">
	<advance width="508"/>
	<unicode hex="0059"/>
	<guideline x="260" y="486" angle="270"/>
	<anchor x="260" y="670" name="top"/>
	<outline>
		<contour>
			<point x="214" y="0" type="line"/>
			<point x="308" y="0" type="line"/>
			<point x="308" y="291" type="line"/>
			<point x="503" y="673" type="line"/>
			<point x="425" y="710" type="line"/>
			<point x="239" y="345" type="line"/>
			<point x="291" y="346" type="line"/>
			<point x="89" y="710" type="line"/>
			<point x="5" y="668" type="line"/>
			<point x="214" y="291" type="line"/>
		</contour>
	</outline>
</glyph>
<glyph name="Z" format="2">
	<advance width="474"/>
	<unicode hex="005A"/>
	<anchor x="247" y="670" name="top"/>
	<outline>
		<contour>
			<point x="20" y="0" type="line"/>
			<point x="466" y="0" type="line"/>
			<point x="466" y="82" type="line"/>
			<point x="85" y="82" type="line"/>
			<point x="104" y="42" type="line"/>
			<point x="474" y="648" type="line"/>
			<point x="454" y="700" type="line"/>
			<point x="51" y="700" type="line"/>
			<point x="51" y="618" type="line"/>
			<point x="389" y="618" type="line"/>
			<point x="370" y="658" type="line"/>
			<point x="0" y="52" type="line"/>
		</contour>
	</outline>
</glyph>
<glyph name="bracketleft" format="2">
	<advance width="404"/>
	<unicode hex="005B"/>
	<outline>
		<contour>
			<point x="70" y="-137" type="line"/>
			<point x="369" y="-137" type="line"/>
			<point x="369" y="-66" type="line"/>
			<point x="156" y="-66" type="line"/>
			<point x="156" y="728" type="line"/>
			<point x="369" y="728" type="line"/>
			<point x="369" y="800" type="line"/>
			<point x="70" y="800" type="line"/>
		</contour>
	</outline>
</glyph>
<glyph name="underscore" format="2">
	<advance width="903"/>
	<unicode hex="005F"/>
	<outline>
		<contour>
			<point x="65" y="0" type="line"/>
			<point x="838" y="0" type="line"/>
			<point x="838" y="73" type="line"/>
			<point x="65" y="73" type="line"/>
		</contour>
	</outline>
</glyph>
<glyph name="grave" format="2">
	<advance width="338"/>
	<unicode hex="0060"/>
	<anchor x="169" y="500" name="_top"/>
	<outline>
		<contour>
			<point x="241" y="576" type="line"/>
			<point x="288" y="636" type="line"/>
			<point x="99" y="782" type="line"/>
			<point x="50" y="724" type="line"/>
		</contour>
	</outline>
</glyph>
<glyph name="a" format="2">
	<advance width="628"/>
	<unicode hex="0061"/>
	<anchor x="299" y="500" name="top"/>
	<outline>
		<contour>
			<point x="513" y="-7" type="curve" smooth="yes"/>
			<point x="558" y="-7"/>
			<point x="599" y="19"/>
			<point x="638" y="75" type="curve"/>
			<point x="583" y="119" type="line"/>
			<point x="567" y="91"/>
			<point x="549" y="65"/>
			<point x="522" y="65" type="curve" smooth="yes"/>
			<point x="496" y="65"/>
			<point x="483" y="83"/>
			<point x="483" y="116" type="curve" smooth="yes"/>
			<point x="483" y="334" type="line" smooth="yes"/>
			<point x="483" y="443"/>
			<point x="431" y="508"/>
			<point x="304" y="508" type="curve" smooth="yes"/>
			<point x="222" y="508"/>
			<point x="159" y="481"/>
			<point x="85" y="442" type="curve"/>
			<point x="118" y="373" type="line"/>
			<point x="180" y="409"/>
			<point x="240" y="436"/>
			<point x="289" y="436" type="curve" smooth="yes"/>
			<point x="371" y="436"/>
			<point x="397" y="400"/>
			<point x="397" y="330" type="curve" smooth="yes"/>
			<point x="397" y="117" type="line" smooth="yes"/>
			<point x="397" y="25"/>
			<point x="449" y="-7"/>
		</contour>
		<contour>
			<point x="229" y="-12" type="curve" smooth="yes"/>
			<point x="313" y="-12"/>
			<point x="385" y="32"/>
			<point x="419" y="62" type="curve"/>
			<point x="404" y="134" type="line"/>
			<point x="367" y="92"/>
			<point x="305" y="61"/>
			<point x="242" y="61" type="curve" smooth="yes"/>
			<point x="180" y="61"/>
			<point x="136" y="89"/>
			<point x="136" y="146" type="curve" smooth="yes"/>
			<point x="136" y="197"/>
			<point x="184" y="235"/>
			<point x="252" y="235" type="curve" smooth="yes"/>
			<point x="300" y="235"/>
			<point x="360" y="222"/>
			<point x="401" y="209" type="curve"/>
			<point x="401" y="283" type="line"/>
			<point x="371" y="294"/>
			<point x="326" y="307"/>
			<point x="264" y="307" type="curve" smooth="yes"/>
			<point x="168" y="307"/>
			<point x="50" y="263"/>
			<point x="50" y="140" type="curve" smooth="yes"/>
			<point x="50" y="35"/>
			<point x="140" y="-12"/>
		</contour>
	</outline>
</glyph>
<glyph name="b" format="2">
	<advance width="599"/>
	<unicode hex="0062"/>
	<outline>
		<contour>
			<point x="304" y="-7" type="curve" smooth="yes"/>
			<point x="463" y="-7"/>
			<point x="564" y="103"/>
			<point x="564" y="248" type="curve" smooth="yes"/>
			<point x="564" y="403"/>
			<point x="469" y="505"/>
			<point x="320" y="505" type="curve" smooth="yes"/>
			<point x="252" y="505"/>
			<point x="183" y="476"/>
			<point x="146" y="428" type="curve"/>
			<point x="146" y="800" type="line"/>
			<point x="60" y="800" type="line"/>
			<point x="60" y="99" type="line"/>
			<point x="122" y="39"/>
			<point x="190" y="-7"/>
		</contour>
		<contour>
			<point x="303" y="65" type="curve" smooth="yes"/>
			<point x="231" y="65"/>
			<point x="180" y="103"/>
			<point x="146" y="148" type="curve"/>
			<point x="146" y="254" type="line" smooth="yes"/>
			<point x="146" y="352"/>
			<point x="211" y="433"/>
			<point x="316" y="433" type="curve" smooth="yes"/>
			<point x="419" y="433"/>
			<point x="478" y="357"/>
			<point x="478" y="250" type="curve" smooth="yes"/>
			<point x="478" y="147"/>
			<point x="416" y="65"/>
		</contour>
	</outline>
</glyph>
<glyph name="c" format="2">
	<advance width="536"/>
	<unicode hex="0063"/>
	<anchor x="284" y="500" name="top"/>
	<outline>
		<contour>
			<point x="276" y="-7" type="curve" smooth="yes"/>
			<point x="401" y="-7"/>
			<point x="471" y="50"/>
			<point x="516" y="134" type="curve"/>
			<point x="447" y="175" type="line"/>
			<point x="421" y="121"/>
			<point x="370" y="65"/>
			<point x="286" y="65" type="curve" smooth="yes"/>
			<point x="191" y="65"/>
			<point x="121" y="160"/>
			<point x="121" y="248" type="curve" smooth="yes"/>
			<point x="121" y="341"/>
			<point x="177" y="434"/>
			<point x="282" y="434" type="curve" smooth="yes"/>
			<point x="372" y="434"/>
			<point x="415" y="391"/>
			<point x="432" y="312" type="curve"/>
			<point x="515" y="338" type="line"/>
			<point x="492" y="451"/>
			<point x="410" y="506"/>
			<point x="282" y="506" type="curve" smooth="yes"/>
			<point x="140" y="506"/>
			<point x="35" y="381"/>
			<point x="35" y="248" type="curve" smooth="yes"/>
			<point x="35" y="105"/>
			<point x="133" y="-7"/>
		</contour>
	</outline>
</glyph>
<glyph name="d" format="2">
	<advance width="599"/>
	<unicode hex="0064"/>
	<outline>
		<contour>
			<point x="284" y="-7" type="curve" smooth="yes"/>
			<point x="430" y="-7"/>
			<point x="510" y="101"/>
			<point x="510" y="253" type="curve" smooth="yes"/>
			<point x="510" y="403"/>
			<point x="436" y="505"/>
			<point x="284" y="505" type="curve" smooth="yes"/>
			<point x="148" y="505"/>
			<point x="35" y="393"/>
			<point x="35" y="248" type="curve" smooth="yes"/>
			<point x="35" y="103"/>
			<point x="133" y="-7"/>
		</contour>
		<contour>
			<point x="293" y="65" type="curve" smooth="yes"/>
			<point x="202" y="65"/>
			<point x="121" y="138"/>
			<point x="121" y="247" type="curve" smooth="yes"/>
			<point x="121" y="347"/>
			<point x="182" y="433"/>
			<point x="293" y="433" type="curve" smooth="yes"/>
			<point x="398" y="433"/>
			<point x="453" y="353"/>
			<point x="453" y="254" type="curve" smooth="yes"/>
			<point x="453" y="153"/>
			<point x="403" y="65"/>
		</contour>
		<contour>
			<point x="453" y="0" type="line"/>
			<point x="539" y="0" type="line"/>
			<point x="539" y="800" type="line"/>
			<point x="453" y="800" type="line"/>
		</contour>
	</outline>
</glyph>
<glyph name="e" format="2">
	<advance width="534"/>
	<unicode hex="0065"/>
	<anchor x="277" y="500" name="top"/>
	<outline>
		<contour>
			<point x="279" y="-7" type="curve" smooth="yes"/>
			<point x="388" y="-7"/>
			<point x="444" y="40"/>
			<point x="496" y="102" type="curve"/>
			<point x="443" y="150" type="line"/>
			<point x="403" y="100"/>
			<point x="360" y="65"/>
			<point x="286" y="65" type="curve" smooth="yes"/>
			<point x="195" y="65"/>
			<point x="121" y="140"/>
			<point x="121" y="249" type="curve" smooth="yes"/>
			<point x="121" y="379"/>
			<point x="182" y="435"/>
			<point x="277" y="435" type="curve" smooth="yes"/>
			<point x="356" y="435"/>
			<point x="414" y="377"/>
			<point x="414" y="303" type="curve"/>
			<point x="114" y="303" type="line"/>
			<point x="114" y="231" type="line"/>
			<point x="499" y="231" type="line"/>
			<point x="499" y="257" type="line" smooth="yes"/>
			<point x="499" y="415"/>
			<point x="417" y="507"/>
			<point x="277" y="507" type="curve" smooth="yes"/>
			<point x="145" y="507"/>
			<point x="35" y="410"/>
			<point x="35" y="249" type="curve" smooth="yes"/>
			<point x="35" y="93"/>
			<point x="131" y="-7"/>
		</contour>
	</outline>
</glyph>
<glyph name="f" format="2">
	<advance width="355"/>
	<unicode hex="0066"/>
	<outline>
		<contour>
			<point x="60" y="0" type="line"/>
			<point x="146" y="0" type="line"/>
			<point x="146" y="570" type="line" smooth="yes"/>
			<point x="146" y="659"/>
			<point x="193" y="733"/>
			<point x="290" y="733" type="curve" smooth="yes"/>
			<point x="373" y="733"/>
			<point x="415" y="670"/>
			<point x="433" y="605" type="curve"/>
			<point x="510" y="642" type="line"/>
			<point x="484" y="744"/>
			<point x="406" y="805"/>
			<point x="297" y="805" type="curve" smooth="yes"/>
			<point x="157" y="805"/>
			<point x="60" y="709"/>
			<point x="60" y="570" type="curve" smooth="yes"/>
		</contour>
		<contour>
			<point x="70" y="428" type="line"/>
			<point x="353" y="428" type="line"/>
			<point x="353" y="500" type="line"/>
			<point x="70" y="500" type="line"/>
		</contour>
	</outline>
</glyph>
<glyph name="g" format="2">
	<advance width="599"/>
	<unicode hex="0067"/>
	<outline>
		<contour>
			<point x="282" y="-274" type="curve" smooth="yes"/>
			<point x="442" y="-274"/>
			<point x="539" y="-180"/>
			<point x="539" y="-12" type="curve" smooth="yes"/>
			<point x="539" y="500" type="line"/>
			<point x="453" y="500" type="line"/>
			<point x="453" y="-12" type="line" smooth="yes"/>
			<point x="453" y="-138"/>
			<point x="396" y="-202"/>
			<point x="287" y="-202" type="curve" smooth="yes"/>
			<point x="222" y="-202"/>
			<point x="150" y="-160"/>
			<point x="130" y="-85" type="curve"/>
			<point x="55" y="-119" type="line"/>
			<point x="97" y="-230"/>
			<point x="190" y="-274"/>
		</contour>
		<contour>
			<point x="284" y="-7" type="curve" smooth="yes"/>
			<point x="430" y="-7"/>
			<point x="510" y="101"/>
			<point x="510" y="253" type="curve" smooth="yes"/>
			<point x="510" y="403"/>
			<point x="436" y="505"/>
			<point x="284" y="505" type="curve" smooth="yes"/>
			<point x="148" y="505"/>
			<point x="35" y="393"/>
			<point x="35" y="248" type="curve" smooth="yes"/>
			<point x="35" y="103"/>
			<point x="133" y="-7"/>
		</contour>
		<contour>
			<point x="293" y="65" type="curve" smooth="yes"/>
			<point x="202" y="65"/>
			<point x="121" y="138"/>
			<point x="121" y="247" type="curve" smooth="yes"/>
			<point x="121" y="347"/>
			<point x="182" y="433"/>
			<point x="293" y="433" type="curve" smooth="yes"/>
			<point x="398" y="433"/>
			<point x="453" y="353"/>
			<point x="453" y="254" type="curve" smooth="yes"/>
			<point x="453" y="153"/>
			<point x="403" y="65"/>
		</contour>
	</outline>
</glyph>
<glyph name="h" format="2">
	<advance width="588"/>
	<unicode hex="0068"/>
	<outline>
		<contour>
			<point x="60" y="0" type="line"/>
			<point x="146" y="0" type="line"/>
			<point x="146" y="800" type="line"/>
			<point x="60" y="800" type="line"/>
		</contour>
		<component base="n"/>
	</outline>
</glyph>
<glyph name="i" format="2">
	<advance width="265"/>
	<unicode hex="0069"/>
	<outline>
		<contour>
			<point x="89" y="0" type="line"/>
			<point x="175" y="0" type="line"/>
			<point x="175" y="500" type="line"/>
			<point x="89" y="500" type="line"/>
		</contour>
		<contour>
			<point x="132" y="611" type="curve" smooth="yes"/>
			<point x="172" y="611"/>
			<point x="205" y="643"/>
			<point x="205" y="683" type="curve" smooth="yes"/>
			<point x="205" y="723"/>
			<point x="172" y="756"/>
			<point x="132" y="756" type="curve" smooth="yes"/>
			<point x="92" y="756"/>
			<point x="60" y="723"/>
			<point x="60" y="683" type="curve" smooth="yes"/>
			<point x="60" y="643"/>
			<point x="92" y="611"/>
		</contour>
	</outline>
</glyph>
<glyph name="j" format="2">
	<advance width="263"/>
	<unicode hex="006A"/>
	<guideline x="166"/>
	<outline>
		<contour>
			<point x="-20" y="-273" type="curve" smooth="yes"/>
			<point x="80" y="-273"/>
			<point x="175" y="-222"/>
			<point x="175" y="-61" type="curve" smooth="yes"/>
			<point x="175" y="500" type="line"/>
			<point x="89" y="500" type="line"/>
			<point x="89" y="-66" type="line" smooth="yes"/>
			<point x="89" y="-175"/>
			<point x="34" y="-201"/>
			<point x="-13" y="-201" type="curve" smooth="yes"/>
			<point x="-73" y="-201"/>
			<point x="-104" y="-166"/>
			<point x="-126" y="-116" type="curve"/>
			<point x="-195" y="-160" type="line"/>
			<point x="-159" y="-225"/>
			<point x="-105" y="-273"/>
		</contour>
		<contour>
			<point x="130" y="611" type="curve" smooth="yes"/>
			<point x="170" y="611"/>
			<point x="203" y="643"/>
			<point x="203" y="683" type="curve" smooth="yes"/>
			<point x="203" y="723"/>
			<point x="170" y="756"/>
			<point x="130" y="756" type="curve" smooth="yes"/>
			<point x="90" y="756"/>
			<point x="58" y="723"/>
			<point x="58" y="683" type="curve" smooth="yes"/>
			<point x="58" y="643"/>
			<point x="90" y="611"/>
		</contour>
	</outline>
</glyph>
<glyph name="k" format="2">
	<advance width="549"/>
	<unicode hex="006B"/>
	<outline>
		<contour>
			<point x="143" y="123" type="line"/>
			<point x="509" y="456" type="line"/>
			<point x="456" y="518" type="line"/>
			<point x="140" y="229" type="line"/>
		</contour>
		<contour>
			<point x="70" y="0" type="line"/>
			<point x="156" y="0" type="line"/>
			<point x="156" y="800" type="line"/>
			<point x="70" y="800" type="line"/>
		</contour>
		<contour>
			<point x="458" y="-12" type="line"/>
			<point x="524" y="39" type="line"/>
			<point x="311" y="324" type="line"/>
			<point x="248" y="268" type="line"/>
		</contour>
	</outline>
</glyph>
<glyph name="m" format="2">
	<advance width="980"/>
	<unicode hex="006D"/>
	<outline>
		<contour>
			<point x="844" y="0" type="line"/>
			<point x="930" y="0" type="line"/>
			<point x="930" y="301" type="line" smooth="yes"/>
			<point x="930" y="431"/>
			<point x="867" y="506"/>
			<point x="731" y="506" type="curve" smooth="yes"/>
			<point x="653" y="506"/>
			<point x="578" y="466"/>
			<point x="512" y="402" type="curve"/>
			<point x="532" y="325" type="line"/>
			<point x="576" y="374"/>
			<point x="645" y="424"/>
			<point x="713" y="424" type="curve" smooth="yes"/>
			<point x="812" y="424"/>
			<point x="844" y="363"/>
			<point x="844" y="269" type="curve" smooth="yes"/>
		</contour>
		<component base="n"/>
	</outline>
</glyph>
<glyph name="n" format="2">
	<advance width="588"/>
	<unicode hex="006E"/>
	<anchor x="303" y="500" name="top"/>
	<outline>
		<contour>
			<point x="452" y="0" type="line"/>
			<point x="538" y="0" type="line"/>
			<point x="538" y="301" type="line" smooth="yes"/>
			<point x="538" y="431"/>
			<point x="475" y="506"/>
			<point x="339" y="506" type="curve" smooth="yes"/>
			<point x="261" y="506"/>
			<point x="186" y="466"/>
			<point x="138" y="418" type="curve"/>
			<point x="140" y="325" type="line"/>
			<point x="184" y="374"/>
			<point x="253" y="424"/>
			<point x="321" y="424" type="curve" smooth="yes"/>
			<point x="420" y="424"/>
			<point x="452" y="363"/>
			<point x="452" y="269" type="curve" smooth="yes"/>
		</contour>
		<contour>
			<point x="60" y="0" type="line"/>
			<point x="146" y="0" type="line"/>
			<point x="146" y="500" type="line"/>
			<point x="60" y="500" type="line"/>
		</contour>
	</outline>
</glyph>
<glyph name="o" format="2">
	<advance width="588"/>
	<unicode hex="006F"/>
	<anchor x="293" y="500" name="top"/>
	<outline>
		<contour>
			<point x="293" y="-7" type="curve" smooth="yes"/>
			<point x="445" y="-7"/>
			<point x="553" y="98"/>
			<point x="553" y="251" type="curve" smooth="yes"/>
			<point x="553" y="405"/>
			<point x="441" y="506"/>
			<point x="293" y="506" type="curve" smooth="yes"/>
			<point x="145" y="506"/>
			<point x="35" y="404"/>
			<point x="35" y="251" type="curve" smooth="yes"/>
			<point x="35" y="98"/>
			<point x="140" y="-7"/>
		</contour>
		<contour>
			<point x="293" y="65" type="curve" smooth="yes"/>
			<point x="189" y="65"/>
			<point x="121" y="153"/>
			<point x="121" y="251" type="curve" smooth="yes"/>
			<point x="121" y="346"/>
			<point x="180" y="434"/>
			<point x="293" y="434" type="curve" smooth="yes"/>
			<point x="407" y="434"/>
			<point x="467" y="348"/>
			<point x="467" y="251" type="curve" smooth="yes"/>
			<point x="467" y="152"/>
			<point x="399" y="65"/>
		</contour>
	</outline>
</glyph>
<glyph name="p" format="2">
	<advance width="599"/>
	<unicode hex="0070"/>
	<outline>
		<contour>
			<point x="315" y="-5" type="curve" smooth="yes"/>
			<point x="451" y="-5"/>
			<point x="564" y="107"/>
			<point x="564" y="252" type="curve" smooth="yes"/>
			<point x="564" y="397"/>
			<point x="466" y="507"/>
			<point x="315" y="507" type="curve" smooth="yes"/>
			<point x="169" y="507"/>
			<point x="89" y="399"/>
			<point x="89" y="247" type="curve" smooth="yes"/>
			<point x="89" y="97"/>
			<point x="163" y="-5"/>
		</contour>
		<contour>
			<point x="60" y="-260" type="line"/>
			<point x="146" y="-260" type="line"/>
			<point x="146" y="500" type="line"/>
			<point x="60" y="500" type="line"/>
		</contour>
		<contour>
			<point x="306" y="67" type="curve" smooth="yes"/>
			<point x="201" y="67"/>
			<point x="146" y="147"/>
			<point x="146" y="246" type="curve" smooth="yes"/>
			<point x="146" y="347"/>
			<point x="196" y="435"/>
			<point x="306" y="435" type="curve" smooth="yes"/>
			<point x="397" y="435"/>
			<point x="478" y="362"/>
			<point x="478" y="253" type="curve" smooth="yes"/>
			<point x="478" y="153"/>
			<point x="417" y="67"/>
		</contour>
	</outline>
</glyph>
<glyph name="q" format="2">
	<advance width="599"/>
	<unicode hex="0071"/>
	<outline>
		<contour>
			<point x="284" y="-5" type="curve" smooth="yes"/>
			<point x="430" y="-5"/>
			<point x="510" y="103"/>
			<point x="510" y="255" type="curve" smooth="yes"/>
			<point x="510" y="405"/>
			<point x="436" y="507"/>
			<point x="284" y="507" type="curve" smooth="yes"/>
			<point x="148" y="507"/>
			<point x="35" y="395"/>
			<point x="35" y="250" type="curve" smooth="yes"/>
			<point x="35" y="105"/>
			<point x="133" y="-5"/>
		</contour>
		<contour>
			<point x="293" y="67" type="curve" smooth="yes"/>
			<point x="202" y="67"/>
			<point x="121" y="140"/>
			<point x="121" y="249" type="curve" smooth="yes"/>
			<point x="121" y="349"/>
			<point x="182" y="435"/>
			<point x="293" y="435" type="curve" smooth="yes"/>
			<point x="398" y="435"/>
			<point x="453" y="355"/>
			<point x="453" y="256" type="curve" smooth="yes"/>
			<point x="453" y="155"/>
			<point x="403" y="67"/>
		</contour>
		<contour>
			<point x="453" y="-260" type="line"/>
			<point x="539" y="-260" type="line"/>
			<point x="539" y="500" type="line"/>
			<point x="453" y="500" type="line"/>
		</contour>
	</outline>
</glyph>
<glyph name="r" format="2">
	<advance width="450"/>
	<unicode hex="0072"/>
	<anchor x="255" y="500" name="top"/>
	<outline>
		<contour>
			<point x="369" y="243" type="line"/>
			<point x="397" y="273"/>
			<point x="425" y="317"/>
			<point x="425" y="372" type="curve" smooth="yes"/>
			<point x="425" y="447"/>
			<point x="371" y="506"/>
			<point x="284" y="506" type="curve" smooth="yes"/>
			<point x="172" y="506"/>
			<point x="116" y="412"/>
			<point x="85" y="346" type="curve"/>
			<point x="117" y="300" type="line"/>
			<point x="148" y="360"/>
			<point x="191" y="433"/>
			<point x="269" y="433" type="curve" smooth="yes"/>
			<point x="310" y="433"/>
			<point x="339" y="405"/>
			<point x="339" y="368" type="curve" smooth="yes"/>
			<point x="339" y="340"/>
			<point x="324" y="313"/>
			<point x="305" y="294" type="curve"/>
		</contour>
		<contour>
			<point x="60" y="0" type="line"/>
			<point x="146" y="0" type="line"/>
			<point x="146" y="500" type="line"/>
			<point x="60" y="500" type="line"/>
		</contour>
	</outline>
</glyph>
<glyph name="s" format="2">
	<advance width="506"/>
	<unicode hex="0073"/>
	<anchor x="248" y="0" name="bottom"/>
	<anchor x="257" y="500" name="top"/>
	<outline>
		<contour>
			<point x="264" y="-7" type="curve" smooth="yes"/>
			<point x="382" y="-7"/>
			<point x="461" y="46"/>
			<point x="461" y="150" type="curve" smooth="yes"/>
			<point x="461" y="218"/>
			<point x="411" y="254"/>
			<point x="321" y="278" type="curve" smooth="yes"/>
			<point x="245" y="299" type="line" smooth="yes"/>
			<point x="186" y="316"/>
			<point x="157" y="337"/>
			<point x="157" y="370" type="curve" smooth="yes"/>
			<point x="157" y="405"/>
			<point x="188" y="432"/>
			<point x="246" y="432" type="curve" smooth="yes"/>
			<point x="305" y="432"/>
			<point x="354" y="403"/>
			<point x="392" y="351" type="curve"/>
			<point x="451" y="408" type="line"/>
			<point x="408" y="464"/>
			<point x="350" y="504"/>
			<point x="259" y="504" type="curve" smooth="yes"/>
			<point x="151" y="504"/>
			<point x="71" y="447"/>
			<point x="71" y="361" type="curve" smooth="yes"/>
			<point x="71" y="285"/>
			<point x="133" y="248"/>
			<point x="217" y="225" type="curve" smooth="yes"/>
			<point x="288" y="205" type="line" smooth="yes"/>
			<point x="338" y="191"/>
			<point x="375" y="174"/>
			<point x="375" y="134" type="curve" smooth="yes"/>
			<point x="375" y="94"/>
			<point x="334" y="65"/>
			<point x="275" y="65" type="curve" smooth="yes"/>
			<point x="202" y="65"/>
			<point x="140" y="105"/>
			<point x="104" y="162" type="curve"/>
			<point x="40" y="107" type="line"/>
			<point x="86" y="44"/>
			<point x="169" y="-7"/>
		</contour>
	</outline>
</glyph>
<glyph name="t" format="2">
	<advance width="456"/>
	<unicode hex="0074"/>
	<anchor x="249" y="0" name="bottom"/>
	<outline>
		<contour>
			<point x="270" y="-12" type="curve" smooth="yes"/>
			<point x="345" y="-12"/>
			<point x="407" y="24"/>
			<point x="441" y="119" type="curve"/>
			<point x="375" y="156" type="line"/>
			<point x="355" y="90"/>
			<point x="319" y="60"/>
			<point x="276" y="60" type="curve" smooth="yes"/>
			<point x="230" y="60"/>
			<point x="200" y="90"/>
			<point x="200" y="149" type="curve" smooth="yes"/>
			<point x="200" y="648" type="line"/>
			<point x="114" y="648" type="line"/>
			<point x="114" y="149" type="line" smooth="yes"/>
			<point x="114" y="39"/>
			<point x="169" y="-12"/>
		</contour>
		<contour>
			<point x="0" y="428" type="line"/>
			<point x="392" y="428" type="line"/>
			<point x="392" y="500" type="line"/>
			<point x="0" y="500" type="line"/>
		</contour>
	</outline>
</glyph>
<glyph name="v" format="2">
	<advance width="520"/>
	<unicode hex="0076"/>
	<outline>
		<contour>
			<point x="224" y="0" type="line"/>
			<point x="316" y="0" type="line"/>
			<point x="500" y="481" type="line"/>
			<point x="427" y="513" type="line"/>
			<point x="266" y="90" type="line"/>
			<point x="279" y="90" type="line"/>
			<point x="99" y="513" type="line"/>
			<point x="20" y="481" type="line"/>
		</contour>
	</outline>
</glyph>
<glyph name="w" format="2">
	<advance width="811"/>
	<unicode hex="0077"/>
	<anchor x="394" y="500" name="top"/>
	<outline>
		<contour>
			<point x="192" y="0" type="line"/>
			<point x="278" y="0" type="line"/>
			<point x="419" y="405" type="line"/>
			<point x="394" y="405" type="line"/>
			<point x="533" y="0" type="line"/>
			<point x="619" y="0" type="line"/>
			<point x="791" y="485" type="line"/>
			<point x="717" y="514" type="line"/>
			<point x="568" y="90" type="line"/>
			<point x="593" y="90" type="line"/>
			<point x="453" y="500" type="line"/>
			<point x="368" y="500" type="line"/>
			<point x="226" y="90" type="line"/>
			<point x="251" y="90" type="line"/>
			<point x="101" y="514" type="line"/>
			<point x="20" y="485" type="line"/>
		</contour>
	</outline>
</glyph>
<glyph name="x" format="2">
	<advance width="504"/>
	<unicode hex="0078"/>
	<outline>
		<contour>
			<point x="411" y="-10" type="line"/>
			<point x="479" y="43" type="line"/>
			<point x="98" y="510" type="line"/>
			<point x="33" y="454" type="line"/>
		</contour>
		<contour>
			<point x="84" y="-10" type="line"/>
			<point x="461" y="458" type="line"/>
			<point x="402" y="510" type="line"/>
			<point x="25" y="43" type="line"/>
		</contour>
	</outline>
</glyph>
<glyph name="y" format="2">
	<advance width="526"/>
	<unicode hex="0079"/>
	<guideline x="280" y="371" angle="270"/>
	<anchor x="281" y="500" name="top"/>
	<outline>
		<contour>
			<point x="106" y="-273" type="curve" smooth="yes"/>
			<point x="194" y="-273"/>
			<point x="242" y="-215"/>
			<point x="269" y="-143" type="curve" smooth="yes"/>
			<point x="506" y="481" type="line"/>
			<point x="434" y="513" type="line"/>
			<point x="204" y="-92" type="line" smooth="yes"/>
			<point x="179" y="-158"/>
			<point x="159" y="-201"/>
			<point x="109" y="-201" type="curve" smooth="yes"/>
			<point x="61" y="-201"/>
			<point x="29" y="-167"/>
			<point x="6" y="-107" type="curve"/>
			<point x="-63" y="-151" type="line"/>
			<point x="-33" y="-226"/>
			<point x="18" y="-273"/>
		</contour>
		<contour>
			<point x="242" y="-29" type="line"/>
			<point x="294" y="68" type="line"/>
			<point x="105" y="513" type="line"/>
			<point x="26" y="481" type="line"/>
		</contour>
	</outline>
</glyph>
<glyph name="z" format="2">
	<advance width="461"/>
	<unicode hex="007A"/>
	<anchor x="200" y="500" name="top"/>
	<outline>
		<contour>
			<point x="56" y="0" type="line"/>
			<point x="424" y="0" type="line"/>
			<point x="424" y="80" type="line"/>
			<point x="99" y="80" type="line"/>
			<point x="117" y="36" type="line"/>
			<point x="426" y="440" type="line"/>
			<point x="399" y="500" type="line"/>
			<point x="57" y="500" type="line"/>
			<point x="57" y="420" type="line"/>
			<point x="364" y="420" type="line"/>
			<point x="346" y="464" type="line"/>
			<point x="35" y="60" type="line"/>
		</contour>
	</outline>
</glyph>
<glyph name="bar" format="2">
	<advance width="226"/>
	<unicode hex="007C"/>
	<outline>
		<contour>
			<point x="70" y="-265" type="line"/>
			<point x="156" y="-265" type="line"/>
			<point x="156" y="800" type="line"/>
			<point x="70" y="800" type="line"/>
		</contour>
	</outline>
</glyph>
<glyph name="cent" format="2">
	<advance width="536"/>
	<unicode hex="00A2"/>
	<outline>
		<contour>
			<point x="250" y="0" type="line"/>
			<point x="336" y="0" type="line"/>
			<point x="336" y="700" type="line"/>
			<point x="250" y="700" type="line"/>
		</contour>
		<component base="c" yOffset="102"/>
	</outline>
</glyph>
<glyph name="sterling" format="2">
	<advance width="550"/>
	<unicode hex="00A3"/>
	<outline>
		<contour>
			<point x="48" y="0" type="line"/>
			<point x="506" y="0" type="line"/>
			<point x="506" y="72" type="line"/>
			<point x="142" y="72" type="line"/>
			<point x="195" y="120"/>
			<point x="272" y="211"/>
			<point x="230" y="315" type="curve" smooth="yes"/>
			<point x="176" y="450" type="line" smooth="yes"/>
			<point x="132" y="559"/>
			<point x="199" y="637"/>
			<point x="303" y="637" type="curve" smooth="yes"/>
			<point x="379" y="637"/>
			<point x="422" y="575"/>
			<point x="444" y="510" type="curve"/>
			<point x="520" y="547" type="line"/>
			<point x="494" y="649"/>
			<point x="422" y="710"/>
			<point x="303" y="710" type="curve" smooth="yes"/>
			<point x="153" y="710"/>
			<point x="34" y="590"/>
			<point x="95" y="433" type="curve" smooth="yes"/>
			<point x="151" y="289" type="line" smooth="yes"/>
			<point x="184" y="203"/>
			<point x="105" y="122"/>
			<point x="31" y="61" type="curve"/>
		</contour>
		<contour>
			<point x="20" y="308" type="line"/>
			<point x="423" y="308" type="line"/>
			<point x="423" y="380" type="line"/>
			<point x="20" y="380" type="line"/>
		</contour>
	</outline>
</glyph>
<glyph name="yen" format="2">
	<advance width="508"/>
	<unicode hex="00A5"/>
	<outline>
		<contour>
			<point x="75" y="212" type="line"/>
			<point x="445" y="212" type="line"/>
			<point x="445" y="289" type="line"/>
			<point x="75" y="289" type="line"/>
		</contour>
		<contour>
			<point x="75" y="92" type="line"/>
			<point x="445" y="92" type="line"/>
			<point x="445" y="169" type="line"/>
			<point x="75" y="169" type="line"/>
		</contour>
		<component base="Y"/>
	</outline>
</glyph>
<glyph name="brokenbar" format="2">
	<advance width="216"/>
	<unicode hex="00A6"/>
	<outline>
		<contour>
			<point x="65" y="420" type="line"/>
			<point x="151" y="420" type="line"/>
			<point x="151" y="800" type="line"/>
			<point x="65" y="800" type="line"/>
		</contour>
		<contour>
			<point x="65" y="-265" type="line"/>
			<point x="151" y="-265" type="line"/>
			<point x="151" y="115" type="line"/>
			<point x="65" y="115" type="line"/>
		</contour>
	</outline>
</glyph>
<glyph name="section" format="2">
	<advance width="535"/>
	<unicode hex="00A7"/>
	<outline>
		<contour>
			<point x="270" y="-101" type="curve" smooth="yes"/>
			<point x="392" y="-101"/>
			<point x="483" y="-48"/>
			<point x="483" y="56" type="curve" smooth="yes"/>
			<point x="483" y="113"/>
			<point x="453" y="147"/>
			<point x="408" y="166" type="curve"/>
			<point x="457" y="191"/>
			<point x="490" y="237"/>
			<point x="490" y="295" type="curve" smooth="yes"/>
			<point x="490" y="370"/>
			<point x="437" y="405"/>
			<point x="358" y="425" type="curve" smooth="yes"/>
			<point x="238" y="456" type="line" smooth="yes"/>
			<point x="203" y="465"/>
			<point x="175" y="486"/>
			<point x="175" y="515" type="curve" smooth="yes"/>
			<point x="175" y="548"/>
			<point x="209" y="577"/>
			<point x="273" y="577" type="curve" smooth="yes"/>
			<point x="334" y="577"/>
			<point x="384" y="550"/>
			<point x="423" y="502" type="curve"/>
			<point x="480" y="553" type="line"/>
			<point x="438" y="609"/>
			<point x="367" y="649"/>
			<point x="276" y="649" type="curve" smooth="yes"/>
			<point x="168" y="649"/>
			<point x="88" y="592"/>
			<point x="88" y="506" type="curve" smooth="yes"/>
			<point x="88" y="446"/>
			<point x="134" y="405"/>
			<point x="180" y="391" type="curve"/>
			<point x="124" y="372"/>
			<point x="81" y="322"/>
			<point x="81" y="267" type="curve" smooth="yes"/>
			<point x="81" y="195"/>
			<point x="143" y="156"/>
			<point x="203" y="141" type="curve" smooth="yes"/>
			<point x="318" y="112" type="line" smooth="yes"/>
			<point x="369" y="99"/>
			<point x="394" y="81"/>
			<point x="394" y="47" type="curve" smooth="yes"/>
			<point x="394" y="0"/>
			<point x="344" y="-27"/>
			<point x="278" y="-27" type="curve" smooth="yes"/>
			<point x="216" y="-27"/>
			<point x="162" y="-3"/>
			<point x="104" y="68" type="curve"/>
			<point x="40" y="13" type="line"/>
			<point x="106" y="-66"/>
			<point x="171" y="-101"/>
		</contour>
		<contour>
			<point x="280" y="210" type="curve" smooth="yes"/>
			<point x="224" y="210"/>
			<point x="168" y="238"/>
			<point x="168" y="282" type="curve" smooth="yes"/>
			<point x="168" y="322"/>
			<point x="224" y="346"/>
			<point x="280" y="346" type="curve" smooth="yes"/>
			<point x="339" y="346"/>
			<point x="401" y="322"/>
			<point x="401" y="282" type="curve" smooth="yes"/>
			<point x="401" y="238"/>
			<point x="339" y="210"/>
		</contour>
	</outline>
</glyph>
<glyph name="dieresis" format="2">
	<advance width="523"/>
	<unicode hex="00A8"/>
	<anchor x="263" y="500" name="_top"/>
	<outline>
		<contour>
			<point x="366" y="618" type="curve" smooth="yes"/>
			<point x="404" y="618"/>
			<point x="435" y="649"/>
			<point x="435" y="687" type="curve" smooth="yes"/>
			<point x="435" y="725"/>
			<point x="404" y="756"/>
			<point x="366" y="756" type="curve" smooth="yes"/>
			<point x="328" y="756"/>
			<point x="297" y="725"/>
			<point x="297" y="687" type="curve" smooth="yes"/>
			<point x="297" y="649"/>
			<point x="328" y="618"/>
		</contour>
		<contour>
			<point x="158" y="618" type="curve" smooth="yes"/>
			<point x="196" y="618"/>
			<point x="227" y="649"/>
			<point x="227" y="687" type="curve" smooth="yes"/>
			<point x="227" y="725"/>
			<point x="196" y="756"/>
			<point x="158" y="756" type="curve" smooth="yes"/>
			<point x="120" y="756"/>
			<point x="89" y="725"/>
			<point x="89" y="687" type="curve" smooth="yes"/>
			<point x="89" y="649"/>
			<point x="120" y="618"/>
		</contour>
	</outline>
</glyph>
<glyph name="guillemotleft" format="2">
	<advance width="659"/>
	<unicode hex="00AB"/>
	<outline>
		<contour>
			<point x="532" y="-12" type="line"/>
			<point x="594" y="39" type="line"/>
			<point x="407" y="264" type="line"/>
			<point x="591" y="458" type="line"/>
			<point x="536" y="513" type="line"/>
			<point x="299" y="259" type="line"/>
		</contour>
		<contour>
			<point x="267" y="-12" type="line"/>
			<point x="330" y="39" type="line"/>
			<point x="143" y="264" type="line"/>
			<point x="326" y="458" type="line"/>
			<point x="271" y="513" type="line"/>
			<point x="35" y="259" type="line"/>
		</contour>
	</outline>
</glyph>
<glyph name="degree" format="2">
	<advance width="449"/>
	<unicode hex="00B0"/>
	<outline>
		<contour>
			<point x="225" y="369" type="curve" smooth="yes"/>
			<point x="325" y="369"/>
			<point x="397" y="437"/>
			<point x="397" y="538" type="curve" smooth="yes"/>
			<point x="397" y="639"/>
			<point x="325" y="708"/>
			<point x="225" y="708" type="curve" smooth="yes"/>
			<point x="123" y="708"/>
			<point x="52" y="640"/>
			<point x="52" y="538" type="curve" smooth="yes"/>
			<point x="52" y="437"/>
			<point x="124" y="369"/>
		</contour>
		<contour>
			<point x="225" y="442" type="curve" smooth="yes"/>
			<point x="168" y="442"/>
			<point x="138" y="492"/>
			<point x="138" y="538" type="curve" smooth="yes"/>
			<point x="138" y="584"/>
			<point x="168" y="636"/>
			<point x="225" y="636" type="curve" smooth="yes"/>
			<point x="281" y="636"/>
			<point x="310" y="583"/>
			<point x="310" y="538" type="curve" smooth="yes"/>
			<point x="310" y="493"/>
			<point x="281" y="442"/>
		</contour>
	</outline>
</glyph>
<glyph name="acute" format="2">
	<advance width="338"/>
	<unicode hex="00B4"/>
	<anchor x="153" y="500" name="_top"/>
	<outline>
		<contour>
			<point x="97" y="576" type="line"/>
			<point x="288" y="724" type="line"/>
			<point x="239" y="782" type="line"/>
			<point x="50" y="636" type="line"/>
		</contour>
	</outline>
</glyph>
<glyph name="paragraph" format="2">
	<advance width="773"/>
	<unicode hex="00B6"/>
	<outline>
		<contour>
			<point x="321" y="0" type="line"/>
			<point x="408" y="0" type="line"/>
			<point x="408" y="627" type="line"/>
			<point x="522" y="627" type="line"/>
			<point x="522" y="0" type="line"/>
			<point x="608" y="0" type="line"/>
			<point x="608" y="627" type="line"/>
			<point x="738" y="627" type="line"/>
			<point x="738" y="700" type="line"/>
			<point x="299" y="700" type="line" smooth="yes"/>
			<point x="156" y="700"/>
			<point x="35" y="620"/>
			<point x="35" y="475" type="curve" smooth="yes"/>
			<point x="35" y="326"/>
			<point x="154" y="250"/>
			<point x="299" y="250" type="curve" smooth="yes"/>
			<point x="321" y="250" type="line"/>
		</contour>
	</outline>
</glyph>
<glyph name="periodcentered" format="2">
	<advance width="255"/>
	<unicode hex="00B7"/>
	<outline>
		<contour>
			<point x="127" y="202" type="curve" smooth="yes"/>
			<point x="167" y="202"/>
			<point x="200" y="234"/>
			<point x="200" y="274" type="curve" smooth="yes"/>
			<point x="200" y="314"/>
			<point x="167" y="347"/>
			<point x="127" y="347" type="curve" smooth="yes"/>
			<point x="87" y="347"/>
			<point x="55" y="314"/>
			<point x="55" y="274" type="curve" smooth="yes"/>
			<point x="55" y="234"/>
			<point x="87" y="202"/>
		</contour>
	</outline>
</glyph>
<glyph name="cedilla" format="2">
	<advance width="331"/>
	<unicode hex="00B8"/>
	<anchor x="155" y="0" name="_bottom"/>
	<outline>
		<contour>
			<point x="74" y="-265" type="line"/>
			<point x="131" y="-265" type="line" smooth="yes"/>
			<point x="193" y="-265"/>
			<point x="251" y="-236"/>
			<point x="251" y="-164" type="curve" smooth="yes"/>
			<point x="251" y="-105"/>
			<point x="217" y="-74"/>
			<point x="163" y="-74" type="curve" smooth="yes"/>
			<point x="161" y="-74" type="line"/>
			<point x="188" y="26" type="line"/>
			<point x="128" y="26" type="line"/>
			<point x="87" y="-125" type="line"/>
			<point x="132" y="-125" type="line" smooth="yes"/>
			<point x="160" y="-125"/>
			<point x="191" y="-133"/>
			<point x="191" y="-164" type="curve" smooth="yes"/>
			<point x="191" y="-196"/>
			<point x="160" y="-208"/>
			<point x="127" y="-208" type="curve" smooth="yes"/>
			<point x="74" y="-208" type="line"/>
		</contour>
	</outline>
</glyph>
<glyph name="guillemotright" format="2">
	<advance width="659"/>
	<unicode hex="00BB"/>
	<outline>
		<contour>
			<point x="392" y="-12" type="line"/>
			<point x="624" y="259" type="line"/>
			<point x="388" y="513" type="line"/>
			<point x="333" y="458" type="line"/>
			<point x="516" y="264" type="line"/>
			<point x="329" y="39" type="line"/>
		</contour>
		<contour>
			<point x="127" y="-12" type="line"/>
			<point x="360" y="259" type="line"/>
			<point x="123" y="513" type="line"/>
			<point x="68" y="458" type="line"/>
			<point x="252" y="264" type="line"/>
			<point x="65" y="39" type="line"/>
		</contour>
	</outline>
</glyph>
<glyph name="AE" format="2">
	<advance width="892"/>
	<unicode hex="00C6"/>
	<outline>
		<contour>
			<point x="-22" y="0" type="line"/>
			<point x="73" y="0" type="line"/>
			<point x="167" y="229" type="line"/>
			<point x="445" y="229" type="line"/>
			<point x="445" y="308" type="line"/>
			<point x="193" y="308" type="line"/>
			<point x="326" y="621" type="line"/>
			<point x="499" y="621" type="line"/>
			<point x="499" y="700" type="line"/>
			<point x="270" y="700" type="line"/>
		</contour>
		<component base="E" xOffset="372"/>
	</outline>
</glyph>
<glyph name="multiply" format="2">
	<advance width="493"/>
	<unicode hex="00D7"/>
	<outline>
		<contour>
			<point x="128" y="227" type="line"/>
			<point x="247" y="346" type="line"/>
			<point x="364" y="227" type="line"/>
			<point x="418" y="281" type="line"/>
			<point x="300" y="400" type="line"/>
			<point x="418" y="519" type="line"/>
			<point x="364" y="573" type="line"/>
			<point x="247" y="454" type="line"/>
			<point x="128" y="573" type="line"/>
			<point x="75" y="519" type="line"/>
			<point x="193" y="400" type="line"/>
			<point x="75" y="281" type="line"/>
		</contour>
	</outline>
</glyph>
<glyph name="Oslash" format="2">
	<advance width="725"/>
	<unicode hex="00D8"/>
	<outline>
		<contour>
			<point x="146" y="-37" type="line"/>
			<point x="657" y="693" type="line"/>
			<point x="595" y="736" type="line"/>
			<point x="84" y="6" type="line"/>
		</contour>
		<component base="O"/>
	</outline>
</glyph>
<glyph name="germandbls" format="2">
	<advance width="596"/>
	<unicode hex="00DF"/>
	<outline>
		<contour>
			<point x="60" y="0" type="line"/>
			<point x="146" y="0" type="line"/>
			<point x="146" y="544" type="line" smooth="yes"/>
			<point x="146" y="659"/>
			<point x="183" y="732"/>
			<point x="297" y="732" type="curve" smooth="yes"/>
			<point x="367" y="732"/>
			<point x="421" y="678"/>
			<point x="421" y="612" type="curve" smooth="yes"/>
			<point x="421" y="519"/>
			<point x="342" y="449"/>
			<point x="249" y="448" type="curve"/>
			<point x="249" y="376" type="line"/>
			<point x="360" y="376"/>
			<point x="473" y="340"/>
			<point x="473" y="234" type="curve" smooth="yes"/>
			<point x="473" y="131"/>
			<point x="395" y="72"/>
			<point x="315" y="72" type="curve" smooth="yes"/>
			<point x="224" y="72" type="line"/>
			<point x="224" y="0" type="line"/>
			<point x="315" y="0" type="line" smooth="yes"/>
			<point x="439" y="0"/>
			<point x="561" y="91"/>
			<point x="561" y="225" type="curve" smooth="yes"/>
			<point x="561" y="360"/>
			<point x="467" y="417"/>
			<point x="375" y="426" type="curve"/>
			<point x="459" y="455"/>
			<point x="510" y="536"/>
			<point x="510" y="619" type="curve" smooth="yes"/>
			<point x="510" y="734"/>
			<point x="430" y="805"/>
			<point x="297" y="805" type="curve" smooth="yes"/>
			<point x="137" y="805"/>
			<point x="60" y="709"/>
			<point x="60" y="544" type="curve" smooth="yes"/>
		</contour>
	</outline>
</glyph>
<glyph name="ae" format="2">
	<advance width="887"/>
	<unicode hex="00E6"/>
	<outline>
		<contour>
			<point x="232" y="-12" type="curve" smooth="yes"/>
			<point x="308" y="-12"/>
			<point x="390" y="32"/>
			<point x="436" y="89" type="curve"/>
			<point x="421" y="161" type="line"/>
			<point x="372" y="92"/>
			<point x="305" y="61"/>
			<point x="250" y="61" type="curve" smooth="yes"/>
			<point x="180" y="61"/>
			<point x="136" y="89"/>
			<point x="136" y="146" type="curve" smooth="yes"/>
			<point x="136" y="197"/>
			<point x="185" y="235"/>
			<point x="252" y="235" type="curve" smooth="yes"/>
			<point x="296" y="235"/>
			<point x="350" y="222"/>
			<point x="391" y="209" type="curve"/>
			<point x="391" y="283" type="line"/>
			<point x="361" y="294"/>
			<point x="322" y="307"/>
			<point x="264" y="307" type="curve" smooth="yes"/>
			<point x="169" y="307"/>
			<point x="50" y="263"/>
			<point x="50" y="140" type="curve" smooth="yes"/>
			<point x="50" y="35"/>
			<point x="135" y="-12"/>
		</contour>
		<contour>
			<point x="387" y="217" type="line"/>
			<point x="473" y="217" type="line"/>
			<point x="473" y="334" type="line" smooth="yes"/>
			<point x="473" y="443"/>
			<point x="421" y="508"/>
			<point x="294" y="508" type="curve" smooth="yes"/>
			<point x="212" y="508"/>
			<point x="149" y="481"/>
			<point x="75" y="442" type="curve"/>
			<point x="108" y="373" type="line"/>
			<point x="170" y="409"/>
			<point x="230" y="436"/>
			<point x="279" y="436" type="curve" smooth="yes"/>
			<point x="361" y="436"/>
			<point x="387" y="400"/>
			<point x="387" y="330" type="curve" smooth="yes"/>
		</contour>
		<component base="e" xOffset="353"/>
	</outline>
</glyph>
<glyph name="igrave" format="2">
	<advance width="358"/>
	<unicode hex="00EC"/>
	<outline>
		<contour>
			<point x="136" y="0" type="line"/>
			<point x="223" y="0" type="line"/>
			<point x="223" y="500" type="line"/>
			<point x="136" y="500" type="line"/>
		</contour>
		<component base="grave" xOffset="10"/>
	</outline>
</glyph>
<glyph name="icircumflex" format="2">
	<advance width="498"/>
	<unicode hex="00EE"/>
	<outline>
		<contour>
			<point x="206" y="0" type="line"/>
			<point x="293" y="0" type="line"/>
			<point x="293" y="500" type="line"/>
			<point x="206" y="500" type="line"/>
		</contour>
		<component base="circumflex" xOffset="10"/>
	</outline>
</glyph>
<glyph name="idieresis" format="2">
	<advance width="466"/>
	<unicode hex="00EF"/>
	<outline>
		<contour>
			<point x="185" y="0" type="line"/>
			<point x="272" y="0" type="line"/>
			<point x="272" y="500" type="line"/>
			<point x="185" y="500" type="line"/>
		</contour>
		<component base="dieresis" xOffset="-29"/>
	</outline>
</glyph>
<glyph name="divide" format="2">
	<advance width="470"/>
	<unicode hex="00F7"/>
	<outline>
		<contour>
			<point x="235" y="462" type="curve" smooth="yes"/>
			<point x="271" y="462"/>
			<point x="301" y="491"/>
			<point x="301" y="527" type="curve" smooth="yes"/>
			<point x="301" y="563"/>
			<point x="271" y="593"/>
			<point x="235" y="593" type="curve" smooth="yes"/>
			<point x="199" y="593"/>
			<point x="170" y="563"/>
			<point x="170" y="527" type="curve" smooth="yes"/>
			<point x="170" y="491"/>
			<point x="199" y="462"/>
		</contour>
		<contour>
			<point x="235" y="79" type="curve" smooth="yes"/>
			<point x="271" y="79"/>
			<point x="300" y="108"/>
			<point x="300" y="144" type="curve" smooth="yes"/>
			<point x="300" y="180"/>
			<point x="271" y="210"/>
			<point x="235" y="210" type="curve" smooth="yes"/>
			<point x="199" y="210"/>
			<point x="170" y="180"/>
			<point x="170" y="144" type="curve" smooth="yes"/>
			<point x="170" y="108"/>
			<point x="199" y="79"/>
		</contour>
		<component base="minus"/>
	</outline>
</glyph>
<glyph name="oslash" format="2">
	<advance width="626"/>
	<unicode hex="00F8"/>
	<outline>
		<contour>
			<point x="127" y="-57" type="line"/>
			<point x="529" y="511" type="line"/>
			<point x="470" y="554" type="line"/>
			<point x="68" y="-14" type="line"/>
		</contour>
		<component base="o"/>
	</outline>
</glyph>
<glyph name="dcaron" format="2">
	<advance width="810"/>
	<unicode hex="010F"/>
	<outline>
		<contour>
			<point x="646" y="581" type="line"/>
			<point x="760" y="619"/>
			<point x="810" y="663"/>
			<point x="810" y="777" type="curve" smooth="yes"/>
			<point x="810" y="800" type="line"/>
			<point x="735" y="800" type="line"/>
			<point x="735" y="777" type="line" smooth="yes"/>
			<point x="735" y="709"/>
			<point x="701" y="676"/>
			<point x="617" y="647" type="curve"/>
		</contour>
		<component base="d"/>
	</outline>
</glyph>
<glyph name="Lcaron" format="2">
	<advance width="489"/>
	<unicode hex="013D"/>
	<outline>
		<contour>
			<point x="306" y="481" type="line"/>
			<point x="420" y="519"/>
			<point x="470" y="563"/>
			<point x="470" y="677" type="curve" smooth="yes"/>
			<point x="470" y="700" type="line"/>
			<point x="395" y="700" type="line"/>
			<point x="395" y="677" type="line" smooth="yes"/>
			<point x="395" y="609"/>
			<point x="361" y="576"/>
			<point x="277" y="547" type="curve"/>
		</contour>
		<component base="L"/>
	</outline>
</glyph>
<glyph name="lcaron" format="2">
	<advance width="402"/>
	<unicode hex="013E"/>
	<outline>
		<contour>
			<point x="238" y="581" type="line"/>
			<point x="352" y="619"/>
			<point x="402" y="663"/>
			<point x="402" y="777" type="curve" smooth="yes"/>
			<point x="402" y="800" type="line"/>
			<point x="327" y="800" type="line"/>
			<point x="327" y="777" type="line" smooth="yes"/>
			<point x="327" y="709"/>
			<point x="293" y="676"/>
			<point x="209" y="647" type="curve"/>
		</contour>
		<component base="l"/>
	</outline>
</glyph>
<glyph name="Lslash" format="2">
	<advance width="489"/>
	<unicode hex="0141"/>
	<outline>
		<contour>
			<point x="-43" y="271" type="line"/>
			<point x="322" y="404" type="line"/>
			<point x="297" y="471" type="line"/>
			<point x="-68" y="338" type="line"/>
		</contour>
		<component base="L"/>
	</outline>
</glyph>
<glyph name="lslash" format="2">
	<advance width="216"/>
	<unicode hex="0142"/>
	<outline>
		<contour>
			<point x="-28" y="301" type="line"/>
			<point x="273" y="411" type="line"/>
			<point x="248" y="478" type="line"/>
			<point x="-53" y="368" type="line"/>
		</contour>
		<component base="l"/>
	</outline>
</glyph>
<glyph name="OE" format="2">
	<advance width="964"/>
	<unicode hex="0152"/>
	<outline>
		<contour>
			<point x="462" y="618" type="line"/>
			<point x="929" y="618" type="line"/>
			<point x="929" y="700" type="line"/>
			<point x="369" y="700" type="line"/>
		</contour>
		<contour>
			<point x="369" y="0" type="line"/>
			<point x="929" y="0" type="line"/>
			<point x="929" y="82" type="line"/>
			<point x="462" y="82" type="line"/>
		</contour>
		<contour>
			<point x="612" y="316" type="line"/>
			<point x="854" y="316" type="line"/>
			<point x="854" y="398" type="line"/>
			<point x="612" y="398" type="line"/>
		</contour>
		<component base="O"/>
	</outline>
</glyph>
<glyph name="tcaron" format="2">
	<advance width="446"/>
	<unicode hex="0165"/>
	<outline>
		<contour>
			<point x="278" y="581" type="line"/>
			<point x="392" y="619"/>
			<point x="442" y="663"/>
			<point x="442" y="777" type="curve" smooth="yes"/>
			<point x="442" y="800" type="line"/>
			<point x="367" y="800" type="line"/>
			<point x="367" y="777" type="line" smooth="yes"/>
			<point x="367" y="709"/>
			<point x="333" y="676"/>
			<point x="249" y="647" type="curve"/>
		</contour>
		<component base="t"/>
	</outline>
</glyph>
<glyph name="circumflex" format="2">
	<advance width="478"/>
	<unicode hex="02C6"/>
	<guideline x="239" y="500" angle="270"/>
	<anchor x="239" y="500" name="_top"/>
	<outline>
		<contour>
			<point x="381" y="576" type="line"/>
			<point x="428" y="636" type="line"/>
			<point x="239" y="782" type="line"/>
			<point x="190" y="724" type="line"/>
		</contour>
		<contour>
			<point x="97" y="576" type="line"/>
			<point x="288" y="724" type="line"/>
			<point x="239" y="782" type="line"/>
			<point x="50" y="636" type="line"/>
		</contour>
	</outline>
</glyph>
<glyph name="ring" format="2">
	<advance width="449"/>
	<unicode hex="02DA"/>
	<guideline x="225" y="366" angle="270"/>
	<anchor x="225" y="500" name="_top"/>
	<outline>
		<contour>
			<point x="225" y="589" type="curve" smooth="yes"/>
			<point x="288" y="589"/>
			<point x="334" y="633"/>
			<point x="334" y="696" type="curve" smooth="yes"/>
			<point x="334" y="760"/>
			<point x="288" y="804"/>
			<point x="225" y="804" type="curve" smooth="yes"/>
			<point x="160" y="804"/>
			<point x="115" y="761"/>
			<point x="115" y="696" type="curve" smooth="yes"/>
			<point x="115" y="633"/>
			<point x="161" y="589"/>
		</contour>
		<contour>
			<point x="225" y="643" type="curve" smooth="yes"/>
			<point x="193" y="643"/>
			<point x="176" y="670"/>
			<point x="176" y="697" type="curve" smooth="yes"/>
			<point x="176" y="723"/>
			<point x="193" y="751"/>
			<point x="225" y="751" type="curve" smooth="yes"/>
			<point x="256" y="751"/>
			<point x="272" y="722"/>
			<point x="272" y="697" type="curve" smooth="yes"/>
			<point x="272" y="671"/>
			<point x="256" y="643"/>
		</contour>
	</outline>
</glyph>
<glyph name="tilde" format="2">
	<advance width="600"/>
	<unicode hex="02DC"/>
	<anchor x="278" y="500" name="_top"/>
	<outline>
		<contour>
			<point x="354" y="613" type="curve" smooth="yes"/>
			<point x="401" y="613"/>
			<point x="459" y="671"/>
			<point x="487" y="716" type="curve"/>
			<point x="432" y="760" type="line"/>
			<point x="407" y="727"/>
			<point x="382" y="700"/>
			<point x="354" y="700" type="curve" smooth="yes"/>
			<point x="337" y="700"/>
			<point x="328" y="705"/>
			<point x="311" y="716" type="curve" smooth="yes"/>
			<point x="268" y="743" type="line" smooth="yes"/>
			<point x="245" y="758"/>
			<point x="223" y="763"/>
			<point x="204" y="763" type="curve" smooth="yes"/>
			<point x="163" y="763"/>
			<point x="106" y="714"/>
			<point x="72" y="662" type="curve"/>
			<point x="131" y="616" type="line"/>
			<point x="162" y="656"/>
			<point x="183" y="677"/>
			<point x="207" y="677" type="curve" smooth="yes"/>
			<point x="222" y="677"/>
			<point x="237" y="672"/>
			<point x="257" y="659" type="curve" smooth="yes"/>
			<point x="302" y="629" type="line" smooth="yes"/>
			<point x="319" y="618"/>
			<point x="331" y="613"/>
		</contour>
	</outline>
</glyph>
<glyph name="endash" format="2">
	<advance width="671"/>
	<unicode hex="2013"/>
	<outline>
		<contour>
			<point x="65" y="255" type="line"/>
			<point x="606" y="255" type="line"/>
			<point x="606" y="326" type="line"/>
			<point x="65" y="326" type="line"/>
		</contour>
	</outline>
</glyph>
<glyph name="emdash" format="2">
	<advance width="923"/>
	<unicode hex="2014"/>
	<outline>
		<contour>
			<point x="75" y="255" type="line"/>
			<point x="848" y="255" type="line"/>
			<point x="848" y="326" type="line"/>
			<point x="75" y="326" type="line"/>
		</contour>
	</outline>
</glyph>
<glyph name="quoteleft" format="2">
	<advance width="226"/>
	<unicode hex="2018"/>
	<outline>
		<contour>
			<point x="201" y="529" type="line"/>
			<point x="226" y="597" type="line"/>
			<point x="183" y="617" type="line" smooth="yes"/>
			<point x="99" y="656"/>
			<point x="75" y="709"/>
			<point x="75" y="777" type="curve" smooth="yes"/>
			<point x="75" y="800" type="line"/>
			<point x="0" y="800" type="line"/>
			<point x="0" y="777" type="line" smooth="yes"/>
			<point x="0" y="663"/>
			<point x="49" y="593"/>
			<point x="163" y="545" type="curve" smooth="yes"/>
		</contour>
	</outline>
</glyph>
<glyph name="quoteright" format="2">
	<advance width="226"/>
	<unicode hex="2019"/>
	<outline>
		<contour>
			<point x="25" y="529" type="line"/>
			<point x="63" y="545" type="line" smooth="yes"/>
			<point x="177" y="593"/>
			<point x="226" y="663"/>
			<point x="226" y="777" type="curve" smooth="yes"/>
			<point x="226" y="800" type="line"/>
			<point x="151" y="800" type="line"/>
			<point x="151" y="777" type="line" smooth="yes"/>
			<point x="151" y="709"/>
			<point x="127" y="656"/>
			<point x="43" y="617" type="curve" smooth="yes"/>
			<point x="0" y="597" type="line"/>
		</contour>
	</outline>
</glyph>
<glyph name="quotesinglbase" format="2">
	<advance width="226"/>
	<unicode hex="201A"/>
	<guideline y="110"/>
	<outline>
		<contour>
			<point x="25" y="-171" type="line"/>
			<point x="63" y="-155" type="line" smooth="yes"/>
			<point x="177" y="-107"/>
			<point x="226" y="-37"/>
			<point x="226" y="77" type="curve" smooth="yes"/>
			<point x="226" y="100" type="line"/>
			<point x="151" y="100" type="line"/>
			<point x="151" y="77" type="line" smooth="yes"/>
			<point x="151" y="9"/>
			<point x="127" y="-44"/>
			<point x="43" y="-83" type="curve" smooth="yes"/>
			<point x="0" y="-103" type="line"/>
		</contour>
	</outline>
</glyph>
<glyph name="quotedblleft" format="2">
	<advance width="356"/>
	<unicode hex="201C"/>
	<outline>
		<contour>
			<point x="331" y="529" type="line"/>
			<point x="356" y="597" type="line"/>
			<point x="313" y="617" type="line" smooth="yes"/>
			<point x="229" y="656"/>
			<point x="205" y="709"/>
			<point x="205" y="777" type="curve" smooth="yes"/>
			<point x="205" y="800" type="line"/>
			<point x="130" y="800" type="line"/>
			<point x="130" y="777" type="line" smooth="yes"/>
			<point x="130" y="663"/>
			<point x="179" y="593"/>
			<point x="293" y="545" type="curve" smooth="yes"/>
		</contour>
		<contour>
			<point x="201" y="449" type="line"/>
			<point x="226" y="517" type="line"/>
			<point x="183" y="537" type="line" smooth="yes"/>
			<point x="99" y="576"/>
			<point x="75" y="629"/>
			<point x="75" y="697" type="curve" smooth="yes"/>
			<point x="75" y="720" type="line"/>
			<point x="0" y="720" type="line"/>
			<point x="0" y="697" type="line" smooth="yes"/>
			<point x="0" y="583"/>
			<point x="49" y="513"/>
			<point x="163" y="465" type="curve" smooth="yes"/>
		</contour>
	</outline>
</glyph>
<glyph name="quotedblright" format="2">
	<advance width="356"/>
	<unicode hex="201D"/>
	<outline>
		<contour>
			<point x="155" y="449" type="line"/>
			<point x="193" y="465" type="line" smooth="yes"/>
			<point x="307" y="513"/>
			<point x="356" y="583"/>
			<point x="356" y="697" type="curve" smooth="yes"/>
			<point x="356" y="720" type="line"/>
			<point x="281" y="720" type="line"/>
			<point x="281" y="697" type="line" smooth="yes"/>
			<point x="281" y="629"/>
			<point x="257" y="576"/>
			<point x="173" y="537" type="curve" smooth="yes"/>
			<point x="130" y="517" type="line"/>
		</contour>
		<contour>
			<point x="25" y="529" type="line"/>
			<point x="63" y="545" type="line" smooth="yes"/>
			<point x="177" y="593"/>
			<point x="226" y="663"/>
			<point x="226" y="777" type="curve" smooth="yes"/>
			<point x="226" y="800" type="line"/>
			<point x="151" y="800" type="line"/>
			<point x="151" y="777" type="line" smooth="yes"/>
			<point x="151" y="709"/>
			<point x="127" y="656"/>
			<point x="43" y="617" type="curve" smooth="yes"/>
			<point x="0" y="597" type="line"/>
		</contour>
	</outline>
</glyph>
<glyph name="quotedblbase" format="2">
	<advance width="356"/>
	<unicode hex="201E"/>
	<guideline y="145"/>
	<outline>
		<contour>
			<point x="155" y="-251" type="line"/>
			<point x="193" y="-235" type="line" smooth="yes"/>
			<point x="307" y="-187"/>
			<point x="356" y="-117"/>
			<point x="356" y="-3" type="curve" smooth="yes"/>
			<point x="356" y="20" type="line"/>
			<point x="281" y="20" type="line"/>
			<point x="281" y="-3" type="line" smooth="yes"/>
			<point x="281" y="-71"/>
			<point x="257" y="-124"/>
			<point x="173" y="-163" type="curve" smooth="yes"/>
			<point x="130" y="-183" type="line"/>
		</contour>
		<contour>
			<point x="25" y="-171" type="line"/>
			<point x="63" y="-155" type="line" smooth="yes"/>
			<point x="177" y="-107"/>
			<point x="226" y="-37"/>
			<point x="226" y="77" type="curve" smooth="yes"/>
			<point x="226" y="100" type="line"/>
			<point x="151" y="100" type="line"/>
			<point x="151" y="77" type="line" smooth="yes"/>
			<point x="151" y="9"/>
			<point x="127" y="-44"/>
			<point x="43" y="-83" type="curve" smooth="yes"/>
			<point x="0" y="-103" type="line"/>
		</contour>
	</outline>
</glyph>
<glyph name="dagger" format="2">
	<advance width="380"/>
	<unicode hex="2020"/>
	<outline>
		<contour>
			<point x="147" y="-125" type="line"/>
			<point x="233" y="-125" type="line"/>
			<point x="233" y="800" type="line"/>
			<point x="147" y="800" type="line"/>
		</contour>
		<contour>
			<point x="0" y="504" type="line"/>
			<point x="380" y="504" type="line"/>
			<point x="380" y="576" type="line"/>
			<point x="0" y="576" type="line"/>
		</contour>
	</outline>
</glyph>
<glyph name="bullet" format="2">
	<advance width="489"/>
	<unicode hex="2022"/>
	<outline>
		<contour>
			<point x="244" y="115" type="curve" smooth="yes"/>
			<point x="352" y="115"/>
			<point x="424" y="187"/>
			<point x="424" y="296" type="curve" smooth="yes"/>
			<point x="424" y="405"/>
			<point x="352" y="478"/>
			<point x="244" y="478" type="curve" smooth="yes"/>
			<point x="136" y="478"/>
			<point x="65" y="404"/>
			<point x="65" y="296" type="curve" smooth="yes"/>
			<point x="65" y="188"/>
			<point x="136" y="115"/>
		</contour>
	</outline>
</glyph>
<glyph name="guilsinglleft" format="2">
	<advance width="395"/>
	<unicode hex="2039"/>
	<outline>
		<contour>
			<point x="267" y="-12" type="line"/>
			<point x="330" y="39" type="line"/>
			<point x="143" y="264" type="line"/>
			<point x="326" y="458" type="line"/>
			<point x="271" y="513" type="line"/>
			<point x="35" y="259" type="line"/>
		</contour>
	</outline>
</glyph>
<glyph name="guilsinglright" format="2">
	<advance width="395"/>
	<unicode hex="203A"/>
	<outline>
		<contour>
			<point x="128" y="-12" type="line"/>
			<point x="360" y="259" type="line"/>
			<point x="124" y="513" type="line"/>
			<point x="69" y="458" type="line"/>
			<point x="252" y="264" type="line"/>
			<point x="65" y="39" type="line"/>
		</contour>
	</outline>
</glyph>
<glyph name="fraction" format="2">
	<advance width="567"/>
	<unicode hex="2044"/>
	<outline>
		<contour>
			<point x="51" y="-15" type="line"/>
			<point x="577" y="669" type="line"/>
			<point x="515" y="715" type="line"/>
			<point x="-10" y="33" type="line"/>
		</contour>
	</outline>
</glyph>
<glyph name="euro" format="2">
	<advance width="644"/>
	<unicode hex="20AC"/>
	<outline>
		<contour>
			<point x="40" y="377" type="line"/>
			<point x="430" y="377" type="line"/>
			<point x="430" y="454" type="line"/>
			<point x="40" y="454" type="line"/>
		</contour>
		<contour>
			<point x="40" y="228" type="line"/>
			<point x="410" y="228" type="line"/>
			<point x="410" y="305" type="line"/>
			<point x="40" y="305" type="line"/>
		</contour>
		<component base="C" xOffset="65"/>
	</outline>
</glyph>
<glyph name="arrowleft" format="2">
	<advance width="930"/>
	<unicode hex="2190"/>
	<outline>
		<contour>
			<point x="340" y="-12" type="line"/>
			<point x="398" y="39" type="line"/>
			<point x="207" y="218" type="line"/>
			<point x="865" y="218" type="line"/>
			<point x="865" y="290" type="line"/>
			<point x="207" y="290" type="line"/>
			<point x="398" y="460" type="line"/>
			<point x="340" y="513" type="line"/>
			<point x="55" y="255" type="line"/>
		</contour>
	</outline>
</glyph>
<glyph name="arrowup" format="2">
	<advance width="595"/>
	<unicode hex="2191"/>
	<outline>
		<contour>
			<point x="265" y="0" type="line"/>
			<point x="337" y="0" type="line"/>
			<point x="337" y="659" type="line"/>
			<point x="507" y="467" type="line"/>
			<point x="560" y="525" type="line"/>
			<point x="302" y="810" type="line"/>
			<point x="35" y="525" type="line"/>
			<point x="86" y="467" type="line"/>
			<point x="265" y="659" type="line"/>
		</contour>
	</outline>
</glyph>
<glyph name="arrowright" format="2">
	<advance width="930"/>
	<unicode hex="2192"/>
	<outline>
		<contour>
			<point x="590" y="-12" type="line"/>
			<point x="875" y="255" type="line"/>
			<point x="590" y="513" type="line"/>
			<point x="532" y="460" type="line"/>
			<point x="724" y="290" type="line"/>
			<point x="65" y="290" type="line"/>
			<point x="65" y="218" type="line"/>
			<point x="724" y="218" type="line"/>
			<point x="532" y="39" type="line"/>
		</contour>
	</outline>
</glyph>
<glyph name="arrowdown" format="2">
	<advance width="595"/>
	<unicode hex="2193"/>
	<outline>
		<contour>
			<point x="302" y="-10" type="line"/>
			<point x="560" y="275" type="line"/>
			<point x="507" y="333" type="line"/>
			<point x="337" y="141" type="line"/>
			<point x="337" y="800" type="line"/>
			<point x="265" y="800" type="line"/>
			<point x="265" y="141" type="line"/>
			<point x="86" y="333" type="line"/>
			<point x="35" y="275" type="line"/>
		</contour>
	</outline>
</glyph>
<glyph name="minus" format="2">
	<advance width="470"/>
	<unicode hex="2212"/>
	<outline>
		<contour>
			<point x="65" y="302" type="line"/>
			<point x="405" y="302" type="line"/>
			<point x="405" y="378" type="line"/>
			<point x="65" y="378" type="line"/>
		</contour>
	</outline>
</glyph>
<glyph name="helm" format="2">
	<advance width="789"/>
	<unicode hex="2388"/>
	<outline>
		<contour>
			<point x="362" y="-10" type="line"/>
			<point x="427" y="-10" type="line"/>
			<point x="427" y="79" type="line"/>
			<point x="504" y="88"/>
			<point x="568" y="128"/>
			<point x="612" y="186" type="curve"/>
			<point x="689" y="141" type="line"/>
			<point x="724" y="199" type="line"/>
			<point x="645" y="245" type="line"/>
			<point x="660" y="276"/>
			<point x="668" y="311"/>
			<point x="668" y="350" type="curve" smooth="yes"/>
			<point x="668" y="389"/>
			<point x="660" y="424"/>
			<point x="645" y="455" type="curve"/>
			<point x="724" y="501" type="line"/>
			<point x="689" y="559" type="line"/>
			<point x="612" y="514" type="line"/>
			<point x="568" y="572"/>
			<point x="504" y="612"/>
			<point x="427" y="621" type="curve"/>
			<point x="427" y="710" type="line"/>
			<point x="362" y="710" type="line"/>
			<point x="362" y="621" type="line"/>
			<point x="285" y="612"/>
			<point x="221" y="572"/>
			<point x="177" y="514" type="curve"/>
			<point x="100" y="559" type="line"/>
			<point x="65" y="501" type="line"/>
			<point x="144" y="455" type="line"/>
			<point x="129" y="424"/>
			<point x="121" y="389"/>
			<point x="121" y="350" type="curve" smooth="yes"/>
			<point x="121" y="311"/>
			<point x="129" y="276"/>
			<point x="144" y="245" type="curve"/>
			<point x="65" y="199" type="line"/>
			<point x="100" y="141" type="line"/>
			<point x="177" y="186" type="line"/>
			<point x="221" y="128"/>
			<point x="285" y="88"/>
			<point x="362" y="79" type="curve"/>
		</contour>
		<contour>
			<point x="362" y="147" type="line"/>
			<point x="311" y="155"/>
			<point x="266" y="183"/>
			<point x="236" y="219" type="curve"/>
			<point x="362" y="291" type="line"/>
		</contour>
		<contour>
			<point x="201" y="278" type="line"/>
			<point x="193" y="300"/>
			<point x="189" y="325"/>
			<point x="189" y="350" type="curve" smooth="yes"/>
			<point x="189" y="375"/>
			<point x="193" y="400"/>
			<point x="201" y="422" type="curve"/>
			<point x="327" y="350" type="line"/>
		</contour>
		<contour>
			<point x="427" y="147" type="curve"/>
			<point x="427" y="291" type="line"/>
			<point x="553" y="219" type="line"/>
			<point x="523" y="183"/>
			<point x="478" y="155"/>
		</contour>
		<contour>
			<point x="362" y="409" type="line"/>
			<point x="236" y="481" type="line"/>
			<point x="266" y="517"/>
			<point x="311" y="545"/>
			<point x="362" y="553" type="curve"/>
		</contour>
		<contour>
			<point x="587" y="278" type="curve"/>
			<point x="462" y="350" type="line"/>
			<point x="587" y="422" type="line"/>
			<point x="596" y="400"/>
			<point x="600" y="375"/>
			<point x="600" y="350" type="curve" smooth="yes"/>
			<point x="600" y="325"/>
			<point x="596" y="300"/>
		</contour>
		<contour>
			<point x="427" y="409" type="line"/>
			<point x="427" y="553" type="line"/>
			<point x="478" y="545"/>
			<point x="523" y="517"/>
			<point x="553" y="481" type="curve"/>
		</contour>
	</outline>
</glyph>
<glyph name="hook" format="2">
	<advance width="600"/>
	<unicode hex="2440"/>
	<outline>
		<contour>
			<point x="307" y="-10" type="curve" smooth="yes"/>
			<point x="396" y="-10"/>
			<point x="535" y="38"/>
			<point x="535" y="182" type="curve" smooth="yes"/>
			<point x="535" y="229"/>
			<point x="520" y="278"/>
			<point x="484" y="303" type="curve" smooth="yes"/>
			<point x="414" y="352" type="line" smooth="yes"/>
			<point x="385" y="372"/>
			<point x="371" y="394"/>
			<point x="371" y="420" type="curve" smooth="yes"/>
			<point x="371" y="500" type="line"/>
			<point x="293" y="500" type="line"/>
			<point x="293" y="431" type="line" smooth="yes"/>
			<point x="293" y="386"/>
			<point x="298" y="347"/>
			<point x="336" y="320" type="curve" smooth="yes"/>
			<point x="415" y="264" type="line" smooth="yes"/>
			<point x="448" y="241"/>
			<point x="457" y="203"/>
			<point x="457" y="176" type="curve" smooth="yes"/>
			<point x="457" y="101"/>
			<point x="390" y="56"/>
			<point x="318" y="56" type="curve" smooth="yes"/>
			<point x="221" y="56"/>
			<point x="132" y="136"/>
			<point x="132" y="211" type="curve"/>
			<point x="173" y="182" type="line"/>
			<point x="205" y="232" type="line"/>
			<point x="65" y="324" type="line"/>
			<point x="65" y="239" type="line" smooth="yes"/>
			<point x="65" y="83"/>
			<point x="183" y="-10"/>
		</contour>
		<contour>
			<point x="332" y="478" type="curve" smooth="yes"/>
			<point x="407" y="478"/>
			<point x="459" y="525"/>
			<point x="459" y="594" type="curve" smooth="yes"/>
			<point x="459" y="663"/>
			<point x="407" y="712"/>
			<point x="332" y="712" type="curve" smooth="yes"/>
			<point x="256" y="712"/>
			<point x="206" y="663"/>
			<point x="206" y="594" type="curve" smooth="yes"/>
			<point x="206" y="525"/>
			<point x="256" y="478"/>
		</contour>
		<contour>
			<point x="333" y="536" type="curve" smooth="yes"/>
			<point x="294" y="536"/>
			<point x="274" y="565"/>
			<point x="274" y="593" type="curve" smooth="yes"/>
			<point x="274" y="620"/>
			<point x="293" y="654"/>
			<point x="332" y="654" type="curve" smooth="yes"/>
			<point x="371" y="654"/>
			<point x="392" y="621"/>
			<point x="392" y="593" type="curve" smooth="yes"/>
			<point x="392" y="564"/>
			<point x="371" y="536"/>
		</contour>
	</outline>
</glyph>
<glyph name="anchor" format="2">
	<advance width="847"/>
	<unicode hex="2693"/>
	<outline>
		<contour>
			<point x="423" y="-10" type="curve" smooth="yes"/>
			<point x="568" y="-10"/>
			<point x="692" y="76"/>
			<point x="715" y="199" type="curve"/>
			<point x="737" y="162" type="line"/>
			<point x="782" y="194" type="line"/>
			<point x="693" y="326" type="line"/>
			<point x="570" y="236" type="line"/>
			<point x="603" y="183" type="line"/>
			<point x="641" y="212" type="line"/>
			<point x="625" y="124"/>
			<point x="533" y="53"/>
			<point x="423" y="53" type="curve" smooth="yes"/>
			<point x="316" y="53"/>
			<point x="220" y="128"/>
			<point x="205" y="214" type="curve"/>
			<point x="244" y="183" type="line"/>
			<point x="277" y="236" type="line"/>
			<point x="154" y="326" type="line"/>
			<point x="65" y="194" type="line"/>
			<point x="110" y="162" type="line"/>
			<point x="137" y="199" type="line"/>
			<point x="158" y="76"/>
			<point x="278" y="-10"/>
		</contour>
		<contour>
			<point x="386" y="-3" type="line"/>
			<point x="461" y="-3" type="line"/>
			<point x="461" y="501" type="line"/>
			<point x="386" y="501" type="line"/>
		</contour>
		<contour>
			<point x="293" y="331" type="line"/>
			<point x="555" y="331" type="line"/>
			<point x="555" y="399" type="line"/>
			<point x="293" y="399" type="line"/>
		</contour>
		<contour>
			<point x="423" y="477" type="curve" smooth="yes"/>
			<point x="500" y="477"/>
			<point x="550" y="527"/>
			<point x="550" y="595" type="curve" smooth="yes"/>
			<point x="550" y="665"/>
			<point x="500" y="713"/>
			<point x="423" y="713" type="curve" smooth="yes"/>
			<point x="347" y="713"/>
			<point x="298" y="665"/>
			<point x="298" y="595" type="curve" smooth="yes"/>
			<point x="298" y="527"/>
			<point x="347" y="477"/>
		</contour>
		<contour>
			<point x="423" y="535" type="curve" smooth="yes"/>
			<point x="387" y="535"/>
			<point x="366" y="565"/>
			<point x="366" y="594" type="curve" smooth="yes"/>
			<point x="366" y="620"/>
			<point x="386" y="656"/>
			<point x="423" y="656" type="curve" smooth="yes"/>
			<point x="461" y="656"/>
			<point x="483" y="621"/>
			<point x="483" y="594" type="curve" smooth="yes"/>
			<point x="483" y="564"/>
			<point x="461" y="535"/>
		</contour>
	</outline>
</glyph>
<glyph name="f_f_l" format="2">
	<advance width="947"/>
	<unicode hex="FB04"/>
	<outline>
		<contour>
			<point x="60" y="-1" type="line"/>
			<point x="146" y="-1" type="line"/>
			<point x="146" y="496" type="line" smooth="yes"/>
			<point x="146" y="611"/>
			<point x="193" y="684"/>
			<point x="297" y="684" type="curve" smooth="yes"/>
			<point x="367" y="684"/>
			<point x="408" y="642"/>
			<point x="427" y="610" type="curve"/>
			<point x="427" y="-1" type="line"/>
			<point x="513" y="-1" type="line"/>
			<point x="513" y="544" type="line" smooth="yes"/>
			<point x="513" y="659"/>
			<point x="560" y="732"/>
			<point x="664" y="732" type="curve" smooth="yes"/>
			<point x="729" y="732"/>
			<point x="791" y="690"/>
			<point x="791" y="595" type="curve" smooth="yes"/>
			<point x="791" y="0" type="line"/>
			<point x="877" y="0" type="line"/>
			<point x="877" y="605" type="line" smooth="yes"/>
			<point x="877" y="747"/>
			<point x="783" y="805"/>
			<point x="664" y="805" type="curve" smooth="yes"/>
			<point x="571" y="805"/>
			<point x="493" y="762"/>
			<point x="457" y="690" type="curve"/>
			<point x="419" y="731"/>
			<point x="367" y="757"/>
			<point x="294" y="757" type="curve" smooth="yes"/>
			<point x="144" y="757"/>
			<point x="60" y="661"/>
			<point x="60" y="496" type="curve" smooth="yes"/>
		</contour>
		<contour>
			<point x="70" y="428" type="line"/>
			<point x="443" y="428" type="line"/>
			<point x="443" y="500" type="line"/>
			<point x="70" y="500" type="line"/>
		</contour>
		<contour>
			<point x="437" y="428" type="line"/>
			<point x="680" y="428" type="line"/>
			<point x="680" y="500" type="line"/>
			<point x="437" y="500" type="line"/>
		</contour>
	</outline>
</glyph>
<glyph name="fish" format="2">
	<advance width="1243"/>
	<unicode hex="1F41F"/>
	<outline>
		<contour>
			<point x="795" y="-10" type="line"/>
			<point x="818" y="9" type="line" smooth="yes"/>
			<point x="820" y="11"/>
			<point x="853" y="37"/>
			<point x="885" y="79" type="curve"/>
			<point x="1106" y="122"/>
			<point x="1171" y="303"/>
			<point x="1174" y="311" type="curve" smooth="yes"/>
			<point x="1178" y="322" type="line"/>
			<point x="1174" y="334" type="line" smooth="yes"/>
			<point x="1172" y="341"/>
			<point x="1115" y="496"/>
			<point x="920" y="546" type="curve"/>
			<point x="866" y="613"/>
			<point x="723" y="679"/>
			<point x="705" y="687" type="curve" smooth="yes"/>
			<point x="656" y="710" type="line"/>
			<point x="656" y="543" type="line"/>
			<point x="480" y="489"/>
			<point x="399" y="346"/>
			<point x="395" y="340" type="curve" smooth="yes"/>
			<point x="385" y="322" type="line"/>
			<point x="395" y="305" type="line" smooth="yes"/>
			<point x="400" y="297"/>
			<point x="505" y="117"/>
			<point x="713" y="77" type="curve"/>
			<point x="741" y="38"/>
			<point x="771" y="12"/>
			<point x="772" y="11" type="curve" smooth="yes"/>
		</contour>
		<contour>
			<point x="66" y="88" type="line"/>
			<point x="120" y="88" type="line" smooth="yes"/>
			<point x="322" y="88"/>
			<point x="449" y="296"/>
			<point x="455" y="304" type="curve" smooth="yes"/>
			<point x="468" y="323" type="line"/>
			<point x="455" y="342" type="line" smooth="yes"/>
			<point x="450" y="350"/>
			<point x="321" y="545"/>
			<point x="120" y="545" type="curve" smooth="yes"/>
			<point x="65" y="545" type="line"/>
			<point x="169" y="322" type="line"/>
		</contour>
		<contour>
			<point x="178" y="166" type="curve"/>
			<point x="247" y="322" type="line"/>
			<point x="179" y="467" type="line"/>
			<point x="280" y="443"/>
			<point x="354" y="359"/>
			<point x="382" y="321" type="curve"/>
			<point x="354" y="282"/>
			<point x="278" y="193"/>
		</contour>
		<contour>
			<point x="797" y="86" type="curve"/>
			<point x="787" y="97"/>
			<point x="774" y="112"/>
			<point x="762" y="130" type="curve" smooth="yes"/>
			<point x="754" y="142" type="line"/>
			<point x="738" y="145" type="line" smooth="yes"/>
			<point x="591" y="167"/>
			<point x="499" y="279"/>
			<point x="468" y="322" type="curve"/>
			<point x="494" y="360"/>
			<point x="571" y="452"/>
			<point x="699" y="482" type="curve" smooth="yes"/>
			<point x="726" y="489" type="line"/>
			<point x="726" y="599" type="line"/>
			<point x="784" y="568"/>
			<point x="850" y="527"/>
			<point x="870" y="497" type="curve" smooth="yes"/>
			<point x="878" y="485" type="line"/>
			<point x="892" y="482" type="line" smooth="yes"/>
			<point x="1031" y="452"/>
			<point x="1087" y="355"/>
			<point x="1103" y="322" type="curve"/>
			<point x="1086" y="285"/>
			<point x="1021" y="167"/>
			<point x="860" y="146" type="curve" smooth="yes"/>
			<point x="845" y="144" type="line"/>
			<point x="836" y="132" type="line" smooth="yes"/>
			<point x="824" y="113"/>
			<point x="809" y="97"/>
		</contour>
		<contour>
			<point x="930" y="323" type="curve" smooth="yes"/>
			<point x="954" y="323"/>
			<point x="974" y="344"/>
			<point x="974" y="369" type="curve" smooth="yes"/>
			<point x="974" y="393"/>
			<point x="954" y="413"/>
			<point x="930" y="413" type="curve" smooth="yes"/>
			<point x="905" y="413"/>
			<point x="885" y="393"/>
			<point x="885" y="369" type="curve" smooth="yes"/>
			<point x="885" y="344"/>
			<point x="905" y="323"/>
		</contour>
	</outline>
</glyph>
<glyph name="VTF" format="2">
	<advance width="1276"/>
	<guideline x="1226" y="570" angle="270"/>
	<guideline x="50" y="520" angle="270"/>
	<guideline x="765" y="601" angle="0"/>
	<outline>
		<contour>
			<point x="605" y="400" type="line"/>
			<point x="699" y="400" type="line"/>
			<point x="699" y="718" type="line"/>
			<point x="1226" y="718" type="line"/>
			<point x="1226" y="800" type="line"/>
			<point x="50" y="800" type="line"/>
			<point x="50" y="718" type="line"/>
			<point x="605" y="718" type="line"/>
		</contour>
		<contour>
			<point x="213" y="130" type="line"/>
			<point x="343" y="130" type="line"/>
			<point x="494" y="577" type="line"/>
			<point x="412" y="607" type="line"/>
			<point x="265" y="168" type="line"/>
			<point x="298" y="169" type="line"/>
			<point x="143" y="607" type="line"/>
			<point x="54" y="577" type="line"/>
		</contour>
		<contour>
			<point x="880" y="130" type="line"/>
			<point x="973" y="130" type="line"/>
			<point x="973" y="303" type="line"/>
			<point x="1177" y="303" type="line"/>
			<point x="1177" y="385" type="line"/>
			<point x="973" y="385" type="line"/>
			<point x="973" y="519" type="line"/>
			<point x="1226" y="519" type="line"/>
			<point x="1226" y="601" type="line"/>
			<point x="880" y="601" type="line"/>
		</contour>
		<component base="anchor" xOffset="231" yOffset="-276"/>
	</outline>
</glyph>
<glyph name="a.alt" format="2">
	<advance width="533"/>
	<outline>
		<contour>
			<point x="397" y="0" type="line"/>
			<point x="483" y="0" type="line"/>
			<point x="483" y="338" type="line" smooth="yes"/>
			<point x="483" y="437"/>
			<point x="431" y="505"/>
			<point x="286" y="505" type="curve" smooth="yes"/>
			<point x="222" y="505"/>
			<point x="159" y="492"/>
			<point x="85" y="453" type="curve"/>
			<point x="116" y="383" type="line"/>
			<point x="181" y="419"/>
			<point x="240" y="432"/>
			<point x="283" y="432" type="curve" smooth="yes"/>
			<point x="389" y="432"/>
			<point x="397" y="377"/>
			<point x="397" y="327" type="curve" smooth="yes"/>
		</contour>
		<contour>
			<point x="229" y="-12" type="curve" smooth="yes"/>
			<point x="313" y="-12"/>
			<point x="378" y="28"/>
			<point x="412" y="58" type="curve"/>
			<point x="403" y="135" type="line"/>
			<point x="370" y="106"/>
			<point x="327" y="61"/>
			<point x="254" y="61" type="curve" smooth="yes"/>
			<point x="192" y="61"/>
			<point x="136" y="95"/>
			<point x="136" y="152" type="curve" smooth="yes"/>
			<point x="136" y="218"/>
			<point x="210" y="235"/>
			<point x="255" y="235" type="curve" smooth="yes"/>
			<point x="305" y="235"/>
			<point x="399" y="214"/>
			<point x="401" y="214" type="curve"/>
			<point x="401" y="288" type="line"/>
			<point x="401" y="288"/>
			<point x="330" y="311"/>
			<point x="264" y="311" type="curve" smooth="yes"/>
			<point x="168" y="311"/>
			<point x="50" y="263"/>
			<point x="50" y="140" type="curve" smooth="yes"/>
			<point x="50" y="32"/>
			<point x="140" y="-12"/>
		</contour>
	</outline>
</glyph>
<glyph name="a.alt2" format="2">
	<advance width="599"/>
	<outline>
		<contour>
			<point x="279" y="-7" type="curve" smooth="yes"/>
			<point x="450" y="-7"/>
			<point x="491" y="101"/>
			<point x="491" y="253" type="curve" smooth="yes"/>
			<point x="491" y="403"/>
			<point x="447" y="505"/>
			<point x="279" y="505" type="curve" smooth="yes"/>
			<point x="130" y="505"/>
			<point x="35" y="393"/>
			<point x="35" y="248" type="curve" smooth="yes"/>
			<point x="35" y="103"/>
			<point x="130" y="-7"/>
		</contour>
		<contour>
			<point x="293" y="65" type="curve" smooth="yes"/>
			<point x="190" y="65"/>
			<point x="121" y="147"/>
			<point x="121" y="247" type="curve" smooth="yes"/>
			<point x="121" y="347"/>
			<point x="189" y="433"/>
			<point x="293" y="433" type="curve" smooth="yes"/>
			<point x="398" y="433"/>
			<point x="453" y="353"/>
			<point x="453" y="254" type="curve" smooth="yes"/>
			<point x="453" y="153"/>
			<point x="403" y="65"/>
		</contour>
		<contour>
			<point x="453" y="0" type="line"/>
			<point x="539" y="0" type="line"/>
			<point x="539" y="500" type="line"/>
			<point x="453" y="500" type="line"/>
		</contour>
	</outline>
</glyph>
<glyph name="b.alt" format="2">
	<advance width="599"/>
	<outline>
		<contour>
			<point x="320" y="-7" type="curve" smooth="yes"/>
			<point x="469" y="-7"/>
			<point x="564" y="103"/>
			<point x="564" y="248" type="curve" smooth="yes"/>
			<point x="564" y="393"/>
			<point x="469" y="505"/>
			<point x="320" y="505" type="curve" smooth="yes"/>
			<point x="152" y="505"/>
			<point x="108" y="403"/>
			<point x="108" y="253" type="curve" smooth="yes"/>
			<point x="108" y="101"/>
			<point x="149" y="-7"/>
		</contour>
		<contour>
			<point x="60" y="0" type="line"/>
			<point x="146" y="0" type="line"/>
			<point x="146" y="800" type="line"/>
			<point x="60" y="800" type="line"/>
		</contour>
		<contour>
			<point x="306" y="67" type="curve" smooth="yes"/>
			<point x="196" y="67"/>
			<point x="146" y="153"/>
			<point x="146" y="254" type="curve" smooth="yes"/>
			<point x="146" y="353"/>
			<point x="201" y="431"/>
			<point x="306" y="431" type="curve" smooth="yes"/>
			<point x="410" y="431"/>
			<point x="478" y="347"/>
			<point x="478" y="247" type="curve" smooth="yes"/>
			<point x="478" y="147"/>
			<point x="409" y="67"/>
		</contour>
	</outline>
</glyph>
<glyph name="f.alt" format="2">
	<advance width="298"/>
	<outline>
		<contour>
			<point x="114" y="-1" type="line"/>
			<point x="200" y="-1" type="line"/>
			<point x="200" y="570" type="line" smooth="yes"/>
			<point x="200" y="675"/>
			<point x="230" y="732"/>
			<point x="307" y="732" type="curve" smooth="yes"/>
			<point x="351" y="732"/>
			<point x="378" y="709"/>
			<point x="402" y="683" type="curve"/>
			<point x="453" y="749" type="line"/>
			<point x="421" y="781"/>
			<point x="378" y="805"/>
			<point x="314" y="805" type="curve" smooth="yes"/>
			<point x="180" y="805"/>
			<point x="114" y="725"/>
			<point x="114" y="570" type="curve" smooth="yes"/>
		</contour>
		<contour>
			<point x="0" y="428" type="line"/>
			<point x="356" y="428" type="line"/>
			<point x="356" y="500" type="line"/>
			<point x="0" y="500" type="line"/>
		</contour>
	</outline>
</glyph>
<glyph name="f_i" format="2">
	<advance width="575"/>
	<guideline x="429"/>
	<outline>
		<contour>
			<point x="60" y="-1" type="line"/>
			<point x="146" y="-1" type="line"/>
			<point x="146" y="544" type="line" smooth="yes"/>
			<point x="146" y="659"/>
			<point x="193" y="732"/>
			<point x="297" y="732" type="curve" smooth="yes"/>
			<point x="373" y="732"/>
			<point x="429" y="686"/>
			<point x="429" y="611" type="curve"/>
			<point x="515" y="611" type="line"/>
			<point x="515" y="734"/>
			<point x="416" y="805"/>
			<point x="297" y="805" type="curve" smooth="yes"/>
			<point x="147" y="805"/>
			<point x="60" y="709"/>
			<point x="60" y="544" type="curve" smooth="yes"/>
		</contour>
		<contour>
			<point x="70" y="428" type="line"/>
			<point x="317" y="428" type="line"/>
			<point x="317" y="500" type="line"/>
			<point x="70" y="500" type="line"/>
		</contour>
		<contour>
			<point x="429" y="0" type="line"/>
			<point x="515" y="0" type="line"/>
			<point x="515" y="500" type="line"/>
			<point x="429" y="500" type="line"/>
		</contour>
	</outline>
</glyph>
<glyph name="f_j" format="2">
	<advance width="576"/>
	<outline>
		<contour>
			<point x="60" y="-1" type="line"/>
			<point x="146" y="-1" type="line"/>
			<point x="146" y="544" type="line" smooth="yes"/>
			<point x="146" y="659"/>
			<point x="193" y="732"/>
			<point x="297" y="732" type="curve" smooth="yes"/>
			<point x="373" y="732"/>
			<point x="429" y="686"/>
			<point x="429" y="611" type="curve"/>
			<point x="515" y="611" type="line"/>
			<point x="515" y="734"/>
			<point x="416" y="805"/>
			<point x="297" y="805" type="curve" smooth="yes"/>
			<point x="147" y="805"/>
			<point x="60" y="709"/>
			<point x="60" y="544" type="curve" smooth="yes"/>
		</contour>
		<contour>
			<point x="321" y="-273" type="curve" smooth="yes"/>
			<point x="421" y="-273"/>
			<point x="516" y="-222"/>
			<point x="516" y="-61" type="curve" smooth="yes"/>
			<point x="516" y="500" type="line"/>
			<point x="430" y="500" type="line"/>
			<point x="430" y="-66" type="line" smooth="yes"/>
			<point x="430" y="-175"/>
			<point x="375" y="-201"/>
			<point x="328" y="-201" type="curve" smooth="yes"/>
			<point x="268" y="-201"/>
			<point x="237" y="-166"/>
			<point x="215" y="-116" type="curve"/>
			<point x="146" y="-160" type="line"/>
			<point x="182" y="-225"/>
			<point x="236" y="-273"/>
		</contour>
		<contour>
			<point x="70" y="428" type="line"/>
			<point x="317" y="428" type="line"/>
			<point x="317" y="500" type="line"/>
			<point x="70" y="500" type="line"/>
		</contour>
	</outline>
</glyph>
<glyph name="f_l" format="2">
	<advance width="580"/>
	<outline>
		<contour>
			<point x="60" y="-1" type="line"/>
			<point x="146" y="-1" type="line"/>
			<point x="146" y="544" type="line" smooth="yes"/>
			<point x="146" y="659"/>
			<point x="183" y="732"/>
			<point x="297" y="732" type="curve" smooth="yes"/>
			<point x="362" y="732"/>
			<point x="424" y="690"/>
			<point x="424" y="595" type="curve" smooth="yes"/>
			<point x="424" y="0" type="line"/>
			<point x="510" y="0" type="line"/>
			<point x="510" y="605" type="line" smooth="yes"/>
			<point x="510" y="747"/>
			<point x="416" y="805"/>
			<point x="297" y="805" type="curve" smooth="yes"/>
			<point x="137" y="805"/>
			<point x="60" y="709"/>
			<point x="60" y="544" type="curve" smooth="yes"/>
		</contour>
		<contour>
			<point x="70" y="428" type="line"/>
			<point x="313" y="428" type="line"/>
			<point x="313" y="500" type="line"/>
			<point x="70" y="500" type="line"/>
		</contour>
	</outline>
</glyph>
<glyph name="f_t" format="2">
	<advance width="766"/>
	<outline>
		<contour>
			<point x="60" y="-1" type="line"/>
			<point x="146" y="-1" type="line"/>
			<point x="146" y="544" type="line" smooth="yes"/>
			<point x="146" y="659"/>
			<point x="193" y="732"/>
			<point x="297" y="732" type="curve" smooth="yes"/>
			<point x="361" y="732"/>
			<point x="424" y="692"/>
			<point x="424" y="606" type="curve" smooth="yes"/>
			<point x="424" y="149" type="line"/>
			<point x="510" y="428" type="line"/>
			<point x="702" y="428" type="line"/>
			<point x="702" y="500" type="line"/>
			<point x="510" y="500" type="line"/>
			<point x="510" y="614" type="line" smooth="yes"/>
			<point x="510" y="747"/>
			<point x="416" y="805"/>
			<point x="297" y="805" type="curve" smooth="yes"/>
			<point x="147" y="805"/>
			<point x="60" y="709"/>
			<point x="60" y="544" type="curve" smooth="yes"/>
		</contour>
		<contour>
			<point x="70" y="428" type="line"/>
			<point x="313" y="428" type="line"/>
			<point x="313" y="500" type="line"/>
			<point x="70" y="500" type="line"/>
		</contour>
		<contour>
			<point x="580" y="-12" type="curve" smooth="yes"/>
			<point x="655" y="-12"/>
			<point x="717" y="24"/>
			<point x="751" y="119" type="curve"/>
			<point x="685" y="156" type="line"/>
			<point x="665" y="90"/>
			<point x="629" y="60"/>
			<point x="586" y="60" type="curve" smooth="yes"/>
			<point x="540" y="60"/>
			<point x="510" y="90"/>
			<point x="510" y="149" type="curve" smooth="yes"/>
			<point x="510" y="558" type="line"/>
			<point x="424" y="558" type="line"/>
			<point x="424" y="149" type="line" smooth="yes"/>
			<point x="424" y="39"/>
			<point x="479" y="-12"/>
		</contour>
	</outline>
</glyph>
<glyph name="g.alt" format="2">
	<advance width="587"/>
	<outline>
		<contour>
			<point x="265" y="-276" type="curve" smooth="yes"/>
			<point x="430" y="-276"/>
			<point x="553" y="-233"/>
			<point x="553" y="-110" type="curve" smooth="yes"/>
			<point x="553" y="-11"/>
			<point x="472" y="49"/>
			<point x="347" y="49" type="curve" smooth="yes"/>
			<point x="209" y="49" type="line" smooth="yes"/>
			<point x="164" y="49"/>
			<point x="148" y="66"/>
			<point x="148" y="85" type="curve" smooth="yes"/>
			<point x="148" y="126"/>
			<point x="218" y="150"/>
			<point x="218" y="150" type="curve"/>
			<point x="185" y="203" type="line"/>
			<point x="185" y="203"/>
			<point x="61" y="145"/>
			<point x="61" y="67" type="curve" smooth="yes"/>
			<point x="61" y="14"/>
			<point x="117" y="-26"/>
			<point x="203" y="-26" type="curve" smooth="yes"/>
			<point x="324" y="-26" type="line" smooth="yes"/>
			<point x="407" y="-26"/>
			<point x="466" y="-46"/>
			<point x="466" y="-112" type="curve" smooth="yes"/>
			<point x="466" y="-178"/>
			<point x="407" y="-206"/>
			<point x="282" y="-206" type="curve" smooth="yes"/>
			<point x="155" y="-206"/>
			<point x="112" y="-177"/>
			<point x="112" y="-124" type="curve" smooth="yes"/>
			<point x="112" y="-75"/>
			<point x="140" y="-39"/>
			<point x="205" y="-19" type="curve"/>
			<point x="190" y="37" type="line"/>
			<point x="114" y="13"/>
			<point x="25" y="-43"/>
			<point x="25" y="-127" type="curve" smooth="yes"/>
			<point x="25" y="-215"/>
			<point x="92" y="-276"/>
		</contour>
		<contour>
			<point x="283" y="125" type="curve" smooth="yes"/>
			<point x="410" y="125"/>
			<point x="487" y="206"/>
			<point x="487" y="314" type="curve" smooth="yes"/>
			<point x="487" y="423"/>
			<point x="410" y="506"/>
			<point x="283" y="506" type="curve" smooth="yes"/>
			<point x="156" y="506"/>
			<point x="81" y="422"/>
			<point x="81" y="314" type="curve" smooth="yes"/>
			<point x="81" y="206"/>
			<point x="157" y="125"/>
		</contour>
		<contour>
			<point x="283" y="198" type="curve" smooth="yes"/>
			<point x="204" y="198"/>
			<point x="168" y="261"/>
			<point x="168" y="313" type="curve" smooth="yes"/>
			<point x="168" y="364"/>
			<point x="203" y="432"/>
			<point x="283" y="432" type="curve" smooth="yes"/>
			<point x="364" y="432"/>
			<point x="400" y="366"/>
			<point x="400" y="313" type="curve" smooth="yes"/>
			<point x="400" y="260"/>
			<point x="364" y="198"/>
		</contour>
		<contour>
			<point x="416" y="356" type="line"/>
			<point x="501" y="356"/>
			<point x="572" y="420"/>
			<point x="572" y="507" type="curve"/>
			<point x="485" y="507" type="line"/>
			<point x="485" y="472"/>
			<point x="471" y="432"/>
			<point x="416" y="432" type="curve"/>
		</contour>
	</outline>
</glyph>
<glyph name="j.alt" format="2">
	<advance width="265"/>
	<outline>
		<contour>
			<point x="91" y="-265" type="line"/>
			<point x="177" y="-265" type="line"/>
			<point x="177" y="500" type="line"/>
			<point x="91" y="500" type="line"/>
		</contour>
		<contour>
			<point x="132" y="611" type="curve" smooth="yes"/>
			<point x="172" y="611"/>
			<point x="205" y="643"/>
			<point x="205" y="683" type="curve" smooth="yes"/>
			<point x="205" y="723"/>
			<point x="172" y="756"/>
			<point x="132" y="756" type="curve" smooth="yes"/>
			<point x="92" y="756"/>
			<point x="60" y="723"/>
			<point x="60" y="683" type="curve" smooth="yes"/>
			<point x="60" y="643"/>
			<point x="92" y="611"/>
		</contour>
	</outline>
</glyph>
<glyph name="k.alt" format="2">
	<advance width="576"/>
	<outline>
		<contour>
			<point x="143" y="130" type="line"/>
			<point x="551" y="500" type="line"/>
			<point x="436" y="500" type="line"/>
			<point x="140" y="229" type="line"/>
		</contour>
		<contour>
			<point x="70" y="0" type="line"/>
			<point x="156" y="0" type="line"/>
			<point x="156" y="800" type="line"/>
			<point x="70" y="800" type="line"/>
		</contour>
		<contour>
			<point x="440" y="0" type="curve"/>
			<point x="526" y="0" type="line"/>
			<point x="526" y="209"/>
			<point x="467" y="307"/>
			<point x="264" y="307" type="curve"/>
			<point x="251" y="231" type="line"/>
			<point x="390" y="231"/>
			<point x="440" y="172"/>
		</contour>
	</outline>
</glyph>
<glyph name="l.alt" format="2">
	<advance width="402"/>
	<outline>
		<contour>
			<point x="234" y="-12" type="curve" smooth="yes"/>
			<point x="298" y="-12"/>
			<point x="350" y="9"/>
			<point x="412" y="80" type="curve"/>
			<point x="357" y="131" type="line"/>
			<point x="316" y="77"/>
			<point x="272" y="67"/>
			<point x="241" y="67" type="curve" smooth="yes"/>
			<point x="183" y="67"/>
			<point x="156" y="101"/>
			<point x="156" y="149" type="curve" smooth="yes"/>
			<point x="156" y="800" type="line"/>
			<point x="70" y="800" type="line"/>
			<point x="70" y="131" type="line" smooth="yes"/>
			<point x="70" y="47"/>
			<point x="128" y="-12"/>
		</contour>
	</outline>
</glyph>
<glyph name="r.alt" format="2">
	<advance width="444"/>
	<outline>
		<contour>
			<point x="144" y="303" type="line"/>
			<point x="188" y="373"/>
			<point x="253" y="413"/>
			<point x="316" y="413" type="curve" smooth="yes"/>
			<point x="353" y="413"/>
			<point x="381" y="400"/>
			<point x="411" y="379" type="curve"/>
			<point x="444" y="465" type="line"/>
			<point x="413" y="491"/>
			<point x="382" y="506"/>
			<point x="333" y="506" type="curve" smooth="yes"/>
			<point x="258" y="506"/>
			<point x="190" y="472"/>
			<point x="142" y="400" type="curve"/>
		</contour>
		<contour>
			<point x="60" y="0" type="line"/>
			<point x="146" y="0" type="line"/>
			<point x="146" y="500" type="line"/>
			<point x="60" y="500" type="line"/>
		</contour>
	</outline>
</glyph>
<glyph name="t.alt" format="2">
	<advance width="478"/>
	<outline>
		<contour>
			<point x="300" y="-12" type="curve" smooth="yes"/>
			<point x="374" y="-12"/>
			<point x="431" y="17"/>
			<point x="488" y="109" type="curve"/>
			<point x="430" y="151" type="line"/>
			<point x="389" y="86"/>
			<point x="348" y="67"/>
			<point x="310" y="67" type="curve" smooth="yes"/>
			<point x="259" y="67"/>
			<point x="227" y="101"/>
			<point x="227" y="149" type="curve" smooth="yes"/>
			<point x="227" y="428" type="line"/>
			<point x="419" y="428" type="line"/>
			<point x="419" y="500" type="line"/>
			<point x="227" y="500" type="line"/>
			<point x="227" y="648" type="line"/>
			<point x="141" y="648" type="line"/>
			<point x="141" y="500" type="line"/>
			<point x="0" y="500" type="line"/>
			<point x="0" y="428" type="line"/>
			<point x="141" y="428" type="line"/>
			<point x="141" y="149" type="line" smooth="yes"/>
			<point x="141" y="47"/>
			<point x="204" y="-12"/>
		</contour>
	</outline>
</glyph>
<glyph name="v.alt" format="2">
	<advance width="496"/>
	<outline>
		<contour>
			<point x="60" y="0" type="line"/>
			<point x="319" y="0"/>
			<point x="496" y="157"/>
			<point x="496" y="459" type="curve" smooth="yes"/>
			<point x="496" y="500" type="line"/>
			<point x="410" y="500" type="line"/>
			<point x="410" y="459" type="line" smooth="yes"/>
			<point x="410" y="223"/>
			<point x="287" y="83"/>
			<point x="60" y="83" type="curve"/>
		</contour>
		<contour>
			<point x="60" y="0" type="line"/>
			<point x="146" y="30" type="line"/>
			<point x="146" y="500" type="line"/>
			<point x="60" y="500" type="line"/>
		</contour>
	</outline>
</glyph>
<glyph name="y.alt" format="2">
	<advance width="600"/>
	<outline>
		<contour>
			<point x="283" y="-273" type="curve" smooth="yes"/>
			<point x="443" y="-273"/>
			<point x="540" y="-192"/>
			<point x="540" y="-12" type="curve" smooth="yes"/>
			<point x="540" y="500" type="line"/>
			<point x="454" y="500" type="line"/>
			<point x="454" y="-12" type="line" smooth="yes"/>
			<point x="454" y="-150"/>
			<point x="397" y="-200"/>
			<point x="283" y="-200" type="curve" smooth="yes"/>
			<point x="230" y="-200"/>
			<point x="159" y="-174"/>
			<point x="131" y="-99" type="curve"/>
			<point x="55" y="-130" type="line"/>
			<point x="97" y="-241"/>
			<point x="182" y="-273"/>
		</contour>
		<contour>
			<point x="268" y="-6" type="curve" smooth="yes"/>
			<point x="357" y="-6"/>
			<point x="410" y="28"/>
			<point x="458" y="80" type="curve"/>
			<point x="456" y="173" type="line"/>
			<point x="412" y="123"/>
			<point x="356" y="76"/>
			<point x="277" y="76" type="curve" smooth="yes"/>
			<point x="176" y="76"/>
			<point x="136" y="147"/>
			<point x="136" y="235" type="curve" smooth="yes"/>
			<point x="136" y="500" type="line"/>
			<point x="50" y="500" type="line"/>
			<point x="50" y="227" type="line" smooth="yes"/>
			<point x="50" y="79"/>
			<point x="122" y="-6"/>
		</contour>
	</outline>
</glyph>
